<svg width="32" height="32" viewBox="0 0 48 48" fill="none"
  xmlns="http://www.w3.org/2000/svg">
  <path d="M13.5122 30.2102C13.1601 29.9087 13.6243 29.9365 13.0359 29.5318C13.049 29.466 13.0607 29.3994 13.0733 29.3337C13.231 29.5274 13.3887 29.7202 13.5468 29.9135C13.5357 30.0129 13.5251 30.1116 13.5129 30.2112C13.5126 30.2109 13.5124 30.2106 13.5122 30.2102ZM15.2635 32.7986C14.9046 32.1804 14.9606 31.9051 14.3923 31.5065C14.5209 31.7148 14.6487 31.9236 14.7766 32.1324C14.6007 32.0257 14.4264 31.9176 14.253 31.8098C14.2838 31.9021 14.3144 31.9946 14.344 32.0863C14.0695 31.7608 13.7961 31.433 13.5232 31.1049C13.5843 31.1379 13.6463 31.1715 13.7076 31.2043C13.6105 30.8511 13.642 30.7131 13.7385 30.564C13.6679 30.4912 13.5979 30.419 13.5275 30.346C13.6948 30.4359 13.8621 30.5258 14.0306 30.6138C14.0713 30.792 14.1156 30.9903 14.1515 31.1571C14.6309 31.6316 14.5723 31.2153 14.5689 31.0447C14.5647 30.8116 14.7302 31.0828 14.7316 30.9159C14.7321 30.8896 14.5841 30.6907 14.6068 30.6683C14.7218 30.5571 15.0478 30.47 15.2579 31.0392C15.0006 31.1439 15.0957 31.6536 14.7778 31.6764C15.231 32.1735 15.2525 32.4408 15.2635 32.7986ZM17.5406 27.9922C17.7335 28.2637 17.5311 28.2906 17.2974 28.2098C17.2973 28.2099 17.2972 28.21 17.2972 28.2101C17.2453 28.1928 16.8973 27.9325 16.9589 27.8927C17.0589 27.8301 17.5991 28.2464 17.3001 27.8896C17.3821 27.9271 17.4582 27.9569 17.5406 27.9922ZM17.6802 27.7736C17.8533 27.8282 18.2199 28.1875 18.0532 28.1677C18.0535 28.1679 18.0538 28.1682 18.0541 28.1685C17.9847 28.1596 17.7315 27.8348 17.9477 28.2107C17.6896 28.02 17.4544 27.8468 17.2063 27.6601C17.2242 27.6325 17.2375 27.605 17.2567 27.577C17.6349 27.9425 17.5085 27.7192 17.6802 27.7736ZM15.1873 30.7277C14.9062 30.3474 14.8662 30.3826 14.5969 30.1763C14.6708 30.1387 14.7465 30.1006 14.8199 30.0625C14.9435 30.2838 15.0658 30.5049 15.1873 30.7277ZM13.5277 31.847C13.5276 31.8471 13.5275 31.8472 13.5274 31.8473C13.5462 31.9247 13.5648 32.0025 13.5828 32.0791C13.474 31.949 13.366 31.8194 13.2576 31.6891C13.2652 31.8752 13.2697 32.0629 13.2748 32.251C12.9989 31.8157 13.1947 31.7857 13.0725 31.4333C13.2783 31.4814 13.5057 31.6879 13.7608 32.0425C13.6833 31.9778 13.6053 31.9118 13.5277 31.847ZM16.2414 16.7761C16.2476 16.9221 16.2577 17.0675 16.2706 17.2124C16.3236 17.2649 16.3706 17.3038 16.4233 17.3683C16.3679 16.7427 16.51 17.2729 16.6208 17.2125C16.9647 17.0364 16.8456 16.0835 17.2803 17.4732C17.0023 17.4195 17.1431 18.0781 17.0742 18.5978C16.9949 18.2148 17.0607 17.3256 16.9317 17.1558C16.7749 17.5872 16.6882 17.9952 16.6154 18.2902C16.6372 18.354 16.6586 18.4182 16.6797 18.4821C16.6897 18.4356 16.701 18.3888 16.7141 18.3421C16.7307 18.5232 16.7531 18.7017 16.7816 18.8826C16.702 18.4807 16.6954 18.7192 16.5753 18.2653C16.5217 18.0631 16.4842 17.7725 16.4631 17.5717C16.3653 17.4847 16.2624 17.411 16.1534 17.3363C16.1397 17.1652 16.1323 16.9927 16.1309 16.8195C16.1669 16.8035 16.2035 16.7895 16.2402 16.7746C16.2406 16.7751 16.241 16.7756 16.2414 16.7761ZM16.4731 33.4312C16.2892 32.9567 16.4416 32.7302 16.8966 33.0563C16.7561 33.1828 16.6156 33.3078 16.4731 33.4312ZM13.9726 32.3338C13.9138 32.2739 13.856 32.2144 13.7974 32.1543C13.7633 31.992 13.7289 31.831 13.6931 31.6695C13.8392 31.859 13.9857 32.0482 14.1319 32.2364C14.0788 32.2695 14.0256 32.3012 13.9726 32.3338ZM16.9476 29.6449C16.9249 29.6857 16.9167 29.6826 16.8529 29.695C16.8531 29.6951 16.8532 29.6952 16.8534 29.6953C16.8287 29.7011 16.5984 29.7218 16.4906 29.5711C16.5553 29.5084 16.6286 29.4455 16.6955 29.3835C16.7798 29.4703 16.862 29.5578 16.9476 29.6449ZM16.067 30.2798C16.0666 30.2796 16.0663 30.2794 16.0659 30.2791C16.0223 30.2794 15.9614 30.2562 15.9282 30.2704C15.8371 29.969 16.1865 30.3538 16.1783 30.1678C16.1686 29.9813 16.0302 29.7219 16.5713 30.1943C16.6144 30.2982 16.6851 30.4389 16.7378 30.5576C16.4279 30.4492 16.5693 30.6804 16.648 30.981C16.454 30.7467 16.2611 30.514 16.067 30.2798ZM18.0416 18.1076C18.1099 17.7617 18.0903 18.1075 18.0913 18.1119C18.0912 18.1123 18.0911 18.1127 18.091 18.1131C18.3353 17.8212 18.041 18.3009 18.2023 18.384C18.1617 18.466 18.1222 18.5534 18.0847 18.6374C18.0762 18.4642 18.063 18.2679 18.0416 18.1076ZM20.877 23.1676C20.7749 23.1592 20.6725 23.151 20.5704 23.1424C20.6075 23.0129 20.2079 22.9495 20.5821 22.8701C20.6832 22.966 20.7818 23.0653 20.8782 23.1678C20.8778 23.1677 20.8774 23.1677 20.877 23.1676ZM18.0268 29.6388C18.0429 29.8998 18.0066 30.0559 17.6705 29.948C17.6701 29.9478 17.6697 29.9476 17.6694 29.9474C17.6492 29.9402 17.5345 29.7533 17.488 29.7231C17.4856 29.7698 17.4939 29.8301 17.495 29.8818C17.3734 29.7606 17.252 29.6392 17.1312 29.5185C17.2341 29.488 17.3366 29.4568 17.4391 29.4246C17.3588 29.3628 17.279 29.3016 17.199 29.2393C17.2206 29.1462 17.2413 29.0534 17.2605 28.9612C17.4398 29.1797 17.6183 29.3992 17.7966 29.6201C17.8735 29.6269 17.9486 29.6323 18.0268 29.6388ZM21.9089 20.7554C21.8039 20.8013 21.6111 20.791 21.5236 20.8465C21.4372 20.9005 21.6547 20.9337 21.341 20.9715C21.2906 20.9294 21.2335 20.8881 21.1802 20.8483C20.6517 21.1057 21.1804 21.169 20.4859 21.2749C20.6461 21.1121 20.5409 21.007 20.3246 20.928C20.8697 20.8077 21.3732 20.862 21.8663 20.6604C21.8802 20.6915 21.8974 20.7239 21.9076 20.7553C21.908 20.7553 21.9085 20.7553 21.9089 20.7554ZM9.38536 36.7879C9.33993 36.6727 8.99277 36.6243 9.13842 36.2987C9.17435 36.2185 9.87067 35.4402 9.9734 35.3499C10.3203 35.047 10.4649 35.1156 10.5849 34.7986C10.6224 34.8362 10.6694 34.8632 10.7106 34.8971C10.9358 34.6847 11.1605 34.473 11.3853 34.2616C11.308 34.2446 11.2304 34.2276 11.1523 34.2113C11.2269 34.1409 11.3016 34.0705 11.3762 34.0002C11.5305 34.1711 11.7362 33.807 12.0912 33.652C12.1576 33.4462 12.2227 33.2403 12.2894 33.0347C12.3143 33.0971 12.3512 33.1642 12.3681 33.2238C12.7656 32.8813 12.5837 32.8647 12.6413 32.7831C12.9673 32.3224 13.1938 32.9959 13.8006 32.5295C13.7948 32.395 13.784 32.258 13.7758 32.1224C13.8666 32.0829 13.9577 32.0436 14.0485 32.0041C13.8153 32.5349 13.8561 32.8621 13.7981 33.2911C13.8313 33.2958 13.8649 33.3001 13.8971 33.3052C14.0694 33.1425 14.2413 32.9806 14.4136 32.8179C14.4601 32.8282 14.5067 32.839 14.5531 32.8492C13.894 33.2819 14.0062 33.3925 13.776 33.8503C13.5038 33.9567 13.5455 33.7532 13.1689 34.0985C13.6809 34.0972 13.553 34.7386 14.0648 34.7291C14.1006 34.7571 14.1534 34.7768 14.1865 34.7458C14.1882 34.7337 14.1896 34.7212 14.1906 34.7083C14.2018 34.5704 13.8436 34.0176 14.0381 33.9631C14.0723 34.0273 14.143 34.1373 14.1916 34.2193C14.3018 33.7695 14.36 33.5035 14.8299 33.5716C14.6791 33.3878 14.5284 33.2028 14.3782 33.0185C14.3849 33.157 14.3915 33.2974 14.3975 33.4358C14.1372 33.1395 14.1016 32.9557 13.9242 33.0797C13.7789 33.1804 13.9622 33.2657 13.9862 33.389C14.019 33.5572 13.7993 33.3293 13.8374 33.5159C13.866 33.6593 14.0927 33.8967 13.9278 33.9068C13.7476 33.5252 13.5594 33.1323 13.3739 32.7477C13.4541 32.8075 13.5351 32.8686 13.6162 32.9291C13.6491 33.0414 13.6814 33.1523 13.7137 33.2649C13.7063 33.0293 13.6964 32.8085 13.6847 32.5657C13.9878 33.0902 13.9701 32.8291 13.9879 32.7306C14.0161 32.5765 14.172 32.9734 14.1931 32.8752C14.214 32.7757 14.0145 32.3491 14.1769 32.3574C14.2726 32.6184 14.4885 32.7624 14.615 32.9769C14.7411 33.1917 14.6563 33.3171 14.9221 33.4628C15.0196 33.1441 14.2478 32.5291 14.3018 32.3047C14.3615 32.038 15.2955 33.2649 15.4347 33.5725C15.5436 33.8151 15.3714 33.8718 15.4772 34.1145C16.0051 34.3177 15.4738 33.5586 15.4114 33.381C15.1841 32.7333 16.1029 34.2397 15.9196 33.5872C16.1091 33.8562 16.2797 34.0981 16.4611 34.3563C16.459 34.2837 16.4341 34.2032 16.4457 34.1359C15.9522 33.7021 16.064 33.6549 16.1112 33.6192C16.1856 33.5623 15.8844 33.3951 15.857 33.3151C15.7831 33.1017 15.9253 33.1189 15.7064 32.9292C15.8074 33.0182 15.9107 33.1058 16.0121 33.193C16.0052 32.9948 15.3787 31.7483 15.3577 32.1101C15.0706 31.6878 15.2765 31.8402 15.3705 31.8666C15.4641 31.8932 15.2676 31.6344 15.3445 31.6515C15.6514 31.7199 15.8836 32.2416 16.1195 32.6095C16.1587 32.2019 15.8246 32.2088 16.0133 31.8087C15.8241 31.5061 15.4511 31.3166 15.4417 31.0641C15.8425 31.5334 16.2025 31.8151 16.5029 31.8371C16.4309 31.7131 16.3577 31.5883 16.2851 31.4648C16.7336 31.8342 17.0629 32.3298 16.7882 31.6424C17.5192 32.7225 17.0548 32.0297 17.5499 32.3058C17.6506 32.3607 17.7477 32.6305 17.8807 32.6975C17.9411 32.7274 17.8607 32.5296 18.0119 32.6076C18.0854 32.6472 18.5272 32.9294 18.4525 32.6797C17.9855 32.2515 17.7814 31.721 17.3187 31.4322C17.6279 31.3357 17.5892 30.9656 17.8981 31.8358C18.082 31.9284 18.2661 32.0191 18.4508 32.1084C18.393 31.9591 18.3354 31.8111 18.2766 31.6636C18.6283 32.0426 18.7191 32.1571 18.8209 31.9413C18.8325 32.0961 18.8454 32.2517 18.8548 32.4083C18.922 32.4883 18.984 32.5784 19.0539 32.6518C19.012 32.4239 19.202 32.1344 19.1669 31.9783C19.1322 31.8224 18.9922 31.9014 18.9186 31.7875C18.3075 30.8522 18.8487 31.4575 18.8178 31.2263C18.7977 31.0911 18.5781 31.1326 18.5759 31.0689C18.5674 30.8364 19.0244 31.2085 19.1307 31.115C18.8625 30.9128 18.5931 30.7043 18.3268 30.4955C18.4395 30.4111 18.5534 30.3028 18.5692 30.1355C18.5754 30.0701 18.3729 29.9236 18.367 29.906C18.3357 29.8173 18.3533 29.607 18.3644 29.5937C18.453 29.499 18.7023 29.7333 18.8047 29.6521C18.7912 29.7087 18.7773 29.7613 18.7636 29.8161C19.1491 30.2155 19.5328 30.6167 19.9161 31.0198C20.0401 30.9491 20.1645 30.8749 20.2879 30.8008C20.0832 30.7494 19.8798 30.6968 19.6775 30.6406C19.4597 30.2195 19.232 29.8048 18.9959 29.3966C19.2496 29.5267 19.5057 29.6533 19.7636 29.7771C19.8501 29.5687 18.9738 28.8726 19.7805 29.436C19.7576 29.3355 19.7343 29.2351 19.7107 29.136C19.8122 29.2323 19.9139 29.3289 20.0151 29.4255C19.9978 29.3125 19.9791 29.2014 19.9589 29.0886C19.5262 28.8365 19.0798 28.5594 18.667 28.3042C18.6692 28.1342 18.9935 28.3998 19.0875 28.4506C19.3367 28.5844 19.1136 28.2655 19.34 28.3932C19.4185 28.4362 19.548 28.7158 19.8253 28.8795C19.8768 28.9143 20.9163 29.4903 20.783 29.2201C20.6137 29.0922 20.4022 28.9405 20.2168 28.8029C20.2132 28.5973 21.149 29.194 21.3842 29.398C21.2675 29.1919 21.3335 29.0708 21.0696 28.8564C21.0738 28.8478 21.0779 28.8393 21.082 28.8309C21.0992 28.7957 21.1156 28.7616 21.1317 28.7273C21.7781 29.2455 21.7732 28.9889 21.1933 28.5767C21.1333 28.6329 21.0725 28.6875 21.0117 28.7425C20.3358 28.1876 19.7732 28.0788 20.7073 28.1466C21.135 28.3239 20.563 28.2484 20.886 28.3774C21.1253 28.378 21.0571 28.1822 21.392 28.2452C21.8107 28.321 22.0277 28.6919 21.8046 28.0978C20.2975 28.1311 21.1538 27.5564 20.9789 27.0513C22.1097 27.572 22.6384 27.4298 22.4993 26.8449C22.165 26.7453 22.2658 26.9503 22.1267 26.9758C21.9883 26.9997 21.8426 26.8311 21.6539 26.8489C21.4656 26.8664 21.1761 26.9479 20.9162 26.914C20.7857 26.7477 20.546 26.1985 20.9252 26.6777C21.3176 26.6625 21.6783 26.7286 21.8438 26.5216C21.3834 26.23 21.0758 26.1 21.1505 25.8839C21.7857 26.3066 22.3745 26.2481 23.0673 26.5973C22.8259 26.7087 22.1738 26.3177 21.8024 26.271C21.7658 26.2657 21.8724 26.4918 21.8438 26.5216C22.528 26.6483 22.789 26.6764 23.4781 27.1082C23.4685 26.9553 23.594 26.9158 23.2445 26.7566C23.4088 26.7952 23.5738 26.8327 23.7387 26.8696C23.7519 26.8263 23.7528 26.783 23.7734 26.7397C23.2112 26.5858 23.5895 26.6004 23.3757 26.424C23.1604 26.2501 22.6945 26.1926 22.7664 25.9796C22.6134 26.0037 22.4808 26.0261 22.3359 26.0452C22.2472 25.861 22.153 25.6805 22.0552 25.5056C21.6894 25.4838 21.1303 25.4815 20.6965 25.3112C20.8811 25.321 20.6516 25.043 20.6448 25.0219C20.6241 24.9345 20.8892 25.067 20.8979 25.064C21.073 24.9907 21.0071 24.8639 21.4473 24.9453C21.2828 24.7947 21.4123 24.758 21.4283 24.6554C21.4369 24.599 21.1179 24.5268 21.186 24.5115C21.6376 24.4087 22.0082 24.6905 21.3133 24.1087C21.0803 24.111 20.8426 24.1078 20.6084 24.1019C20.5341 24.0411 20.4586 23.9818 20.3831 23.9236C20.4293 23.9049 20.4757 23.8861 20.5218 23.8665C21.0058 23.9632 21.4908 24.0603 21.9748 24.1573C22.0084 24.1265 22.041 24.0951 22.0743 24.0637C22.1104 24.135 22.1457 24.2073 22.1803 24.2804C22.2641 24.3038 22.348 24.3269 22.4318 24.3507C22.5836 24.282 22.736 24.2096 22.8875 24.1326C22.7188 24.1005 22.5489 24.0683 22.3801 24.0364C22.6527 23.8624 22.7989 23.8668 22.3588 23.597C22.3852 23.4364 21.6844 23.2318 21.3909 23.1243C21.4895 23.1037 21.5892 23.0823 21.6877 23.0594C21.547 23.028 21.4068 22.9973 21.2658 22.9678C21.4668 22.9461 21.6677 22.9212 21.8675 22.8943C21.4187 22.8432 21.2794 22.8276 21.1111 22.9575C20.5564 22.8659 20.8171 22.6509 21.0076 22.5527C21.1527 22.4796 21.6179 22.5792 21.675 22.572C21.8696 22.543 21.7055 22.4014 21.7376 22.3737C21.7734 22.3417 21.798 22.3117 21.8167 22.2831C21.868 22.2033 21.8749 22.1363 21.9489 22.0521C21.9691 22.0304 22.2636 21.9599 22.2727 21.9539C22.3222 21.9109 22.4615 21.8008 22.4649 21.7886C22.6447 21.1683 21.4109 21.888 21.4992 21.3671C21.3323 21.4009 21.1662 21.4321 20.9989 21.4634C20.9849 21.4296 20.9711 21.395 20.9567 21.3618C21.092 21.3007 21.3547 21.3221 21.1368 21.259C21.3448 21.2372 21.553 21.2159 21.7601 21.1957C21.6427 21.1677 21.5263 21.1434 21.4086 21.1191C22.1184 20.9501 22.2326 20.6543 23.0705 20.5068C23.3564 20.455 23.6896 20.6276 23.9726 20.4532C24.0142 20.3421 23.6864 20.4729 23.6611 20.4366C23.482 20.1795 23.9556 20.0901 23.8021 19.999C23.5954 20.0286 23.3848 20.0596 23.1765 20.0923C23.2255 20.0361 23.274 19.9793 23.3215 19.9205C23.1838 19.9465 23.0461 19.9727 22.9087 19.9998C22.9099 20.04 22.9118 20.0849 22.9115 20.1216C22.3761 20.1978 22.027 19.8787 22.5137 19.8954C22.7127 19.905 22.6717 20.0543 23.2641 19.7993C23.1399 19.6992 23.0067 19.5899 22.8762 19.4957C23.0048 19.4465 23.1336 19.3971 23.262 19.3474C23.1149 19.2011 22.6554 19.5494 22.3754 19.6429C22.3552 19.6106 22.3354 19.5775 22.3146 19.5456C22.4339 19.4839 22.5589 19.4198 22.6732 19.357C22.474 19.4309 22.0078 19.5905 22.1374 19.4233C22.2199 19.3116 22.76 19.2142 22.6344 19.1082C22.3352 19.251 21.9817 19.4472 21.8275 19.3624C22.1369 19.2078 22.4161 19.0571 22.7405 18.8933C22.3545 18.8516 22.7857 18.5207 22.3276 18.495C22.0327 18.4724 21.2221 18.8158 22.2682 17.9805C22.2307 17.865 21.9802 18.0881 21.9008 18.1052C21.5301 18.1957 21.964 17.7254 21.9713 17.6748C22.0253 17.4235 21.874 17.4352 21.8926 17.2607C21.8909 17.2594 21.8872 17.2543 21.8855 17.2531C21.8882 17.2189 21.8967 17.1773 21.9133 17.1245C21.7416 17.3029 21.5762 17.4686 21.4068 17.6403C21.4523 17.6198 21.4928 17.6032 21.529 17.5902C21.7803 17.5072 21.8186 17.5831 21.8708 17.7583C21.7913 17.7385 21.7111 17.7216 21.632 17.706C21.4868 17.8449 21.3406 17.9829 21.1944 18.1192C22.1572 18.0571 21.0562 18.6724 20.6168 18.5698C20.8768 18.3025 21.1291 18.0286 21.3779 17.7485C21.3678 17.7514 21.358 17.7543 21.3484 17.7569C20.7991 17.9352 21.0579 17.5245 20.8893 17.2347C20.8682 17.1997 20.6326 17.2871 20.583 17.2642C20.5829 17.2659 20.5828 17.2676 20.5827 17.2693C20.3475 17.5317 20.2876 17.6882 20.1028 17.9415C20.0595 17.9582 20.0167 17.9754 19.9742 17.9934C20.0691 17.7678 20.1964 17.6161 20.0684 17.5987C19.9498 17.8056 19.8288 18.0111 19.7057 18.2152C19.6167 18.1651 19.6907 17.9067 19.5451 17.952C19.6044 17.8822 19.6647 17.8127 19.7261 17.7444C19.6314 17.4269 20.4711 16.2916 19.9508 16.8044C19.9936 16.6892 20.0363 16.5727 20.0771 16.4567C20.1791 16.474 20.281 16.4956 20.383 16.5195C20.4708 16.3707 20.5585 16.2228 20.6463 16.0739C20.5177 16.0596 20.3889 16.0513 20.2627 16.0466C20.3895 15.98 20.5208 15.9177 20.6551 15.8596C20.5709 15.7183 20.4789 15.5787 20.3794 15.4415C20.2463 16.0806 20.0397 16.0696 19.8103 16.6569C19.8518 16.1004 19.887 15.3653 19.3948 15.676C19.2972 15.7393 19.2231 16.1732 19.1667 15.6044C19.0303 16.2909 18.7359 16.5567 18.6194 17.2134C18.6771 17.1937 18.7345 17.1871 18.7938 17.1623C18.7985 16.925 18.9336 16.3038 19.0896 16.1503C19.2937 15.9559 19.3539 16.4396 19.5718 15.7699C19.6186 15.8208 19.6653 15.8583 19.7102 15.9049C19.6264 16.0601 19.5447 16.2175 19.4653 16.3747C19.7014 16.1686 19.7723 16.2953 19.6591 16.7264C19.4625 16.7517 19.2729 16.789 19.0898 16.8369C19.1034 16.8725 19.1168 16.9086 19.1297 16.9433C18.8828 17.3372 18.8581 17.7746 18.6602 17.8172C18.7163 17.6191 18.7724 17.4209 18.8292 17.2219C18.608 17.7306 18.4454 17.6909 18.3587 18.3208C18.3563 18.1209 18.3668 17.9975 18.2732 18.3268C18.2509 17.8312 18.2198 17.2125 18.3937 16.5039C18.3067 16.6087 18.2235 16.7156 18.1447 16.8241C18.1595 17.0258 18.1697 17.2265 18.1759 17.428C18.0773 17.4017 17.975 17.3785 17.8722 17.3593C17.9062 16.7714 18.0959 17.2007 18.0836 16.6718C18.0803 16.5653 17.9953 16.7841 17.9845 16.7236C17.8577 16.0683 18.1035 16.5548 18.0963 16.0603C17.8227 15.886 18.0993 15.074 17.647 15.7489C17.6406 15.579 17.6326 15.4056 17.6254 15.2368C17.5214 15.2277 17.4916 15.4001 17.4453 15.5349C17.4227 15.6001 17.3964 15.6568 17.3558 15.6809C17.2825 15.7268 17.1508 15.0576 17.0814 15.5204C17.0753 15.6061 17.2452 16.4175 16.9721 16.4009C16.759 16.3929 16.7852 15.8066 16.6293 15.618C16.4536 15.4317 16.3268 16.2751 16.0373 15.4066C16.1372 15.5075 16.2405 15.5526 16.3357 15.636C16.3346 15.4552 16.3357 15.2762 16.3403 15.096C16.1921 15.3531 15.9342 15.1348 15.9166 15.5786C15.4932 15.0174 15.388 15.6985 15.7201 16.3575C15.7516 16.2343 15.5719 15.9585 15.736 16.1174C15.8005 16.2758 15.8642 16.4337 15.9265 16.5929C15.7734 16.6217 15.67 16.6703 15.5529 16.1567C15.5229 16.1549 15.493 16.1534 15.4628 16.1522C15.5996 16.5032 15.7386 16.8549 15.8777 17.205C15.8709 17.2536 15.865 17.3018 15.8603 17.3501C15.8032 17.2847 15.744 17.2195 15.6828 17.1556C15.4641 16.6012 15.5464 16.5368 15.1525 16.3583C15.2449 16.5423 15.3366 16.7258 15.4292 16.9098C15.1343 16.7697 14.8668 16.343 14.6231 16.5246C14.4394 15.7876 15.2034 16.816 14.4929 15.5692C14.5996 15.6172 14.7049 15.6691 14.8062 15.723C14.7202 15.5333 14.6352 15.3428 14.551 15.1523C14.1908 15.454 14.5515 16.876 13.8218 16.3145C13.8712 16.4176 13.9128 16.5088 13.9704 16.6164C13.9271 16.5942 13.8922 16.5809 13.8643 16.5748L13.8778 16.5631C13.5585 16.4996 14.1684 17.2703 13.5718 16.952C13.5009 16.9215 12.7109 16.0636 12.4884 16.3791C12.6086 16.4695 12.8034 16.6304 12.9513 16.7488C12.8342 16.7437 12.7124 16.7399 12.5909 16.7421C12.6913 16.8387 12.792 16.9349 12.8946 17.0305C13.0113 16.9675 13.1296 16.9117 13.2469 16.8619C13.2179 16.9651 13.1923 17.0692 13.171 17.1726C13.4248 17.218 13.455 17.1883 13.6915 17.4707C13.6492 17.5555 13.6114 17.642 13.5763 17.7285C13.6465 17.7902 13.7181 17.8519 13.7892 17.9125C14.0393 18.039 14.2796 18.1702 14.5223 18.316C14.2378 18.3171 14.1532 18.4288 13.596 18.3202C13.5018 18.3036 13.2229 18.0489 13.4277 18.3742C13.2529 18.2963 13.1095 18.2363 12.9471 18.1659C13.3245 18.6402 13.166 18.6069 12.7113 18.7921C13.1092 18.7079 12.8371 18.8073 13.0141 18.8984C13.1357 18.9599 13.1462 18.8432 13.2775 18.8936C13.4053 18.95 13.919 19.2015 14.0087 19.1236C13.4862 18.8566 13.5771 18.7628 13.7314 18.7261C13.8897 18.6811 14.1051 18.6933 13.9385 18.4205C14.044 18.5364 14.1548 18.6462 14.27 18.7485C14.3694 18.7731 14.4587 18.7976 14.5625 18.8284C14.2996 18.8559 14.4591 18.8623 14.5993 18.9817C14.7397 19.1023 14.8527 19.2309 14.8841 19.2961C14.8937 19.3174 14.6527 19.2237 14.6172 19.2606C14.5912 19.291 14.9456 19.4496 14.5019 19.3755C14.2094 19.3453 13.4651 18.9571 13.4082 19.252C13.1149 19.2605 13.23 19.126 13.1974 19.1162C12.8695 19.0114 12.5728 19.192 12.8196 19.3293C12.841 19.3386 13.1144 19.3027 13.2075 19.3941C13.4332 19.6027 13.1254 19.6652 12.7084 19.7909C12.9362 19.8034 13.1838 19.8483 13.3647 19.904C13.5681 19.9682 13.6869 20.0422 13.5977 20.1388C13.7366 20.1394 13.8766 20.1385 14.0165 20.137C13.9417 20.1182 13.868 20.0974 13.7936 20.0751C13.8792 20.0435 13.9415 20.0124 14.0434 19.9843C14.1672 20.1404 14.837 20.1079 15.0839 20.1317C15.9285 20.1703 14.1714 20.3381 13.8612 20.3085C13.9796 20.2605 14.1133 20.2155 14.2397 20.1748C14.0719 20.1923 13.9028 20.2106 13.7341 20.229C13.7884 20.6414 12.6496 20.4179 12.3804 20.7346C13.2144 20.6792 13.3095 20.7836 12.8839 21.1835C12.8966 21.2095 12.9068 21.2365 12.9211 21.2617C13.0369 21.2263 13.2114 21.1651 13.2889 21.1451C13.5064 21.3327 12.3859 21.9297 12.2945 22.023C11.8914 22.4209 12.6163 22.189 12.6405 22.2168C12.7617 22.3667 12.524 22.6039 12.755 22.6782C13.0015 22.7471 13.1146 22.4793 13.3276 22.3837C13.4944 22.3051 13.6044 22.3846 13.7769 22.2958C13.6507 22.3839 13.5233 22.466 13.3931 22.5499C13.3592 22.825 13.3361 23.0901 13.4774 23.2794C13.7176 23.1033 13.8158 23.0704 13.8558 23.1054L13.8406 23.093C13.9447 23.1901 13.5742 23.833 14.2176 22.9024C14.1898 22.8334 14.1776 22.7636 14.1823 22.6867C14.1894 22.5508 14.2476 22.3883 14.3748 22.1671C14.4379 22.1835 14.5007 22.1982 14.5638 22.2109C14.5657 22.213 14.573 22.2177 14.5749 22.2199C14.6178 22.2301 14.6607 22.2392 14.7036 22.2473C14.6221 22.3964 14.5392 22.5388 14.467 22.698C14.743 22.4614 14.7975 22.6827 14.9144 22.6313C15.4491 22.3768 15.5814 21.7583 15.402 22.8031C15.1747 22.8074 14.9418 23.2459 14.7679 23.0688C14.6322 23.4001 14.7882 23.402 14.506 23.7309C14.7891 23.7651 14.8859 23.385 15.1138 23.1234C15.3065 22.8953 15.4373 22.934 15.5763 22.5834C15.5075 22.7792 15.4402 22.9684 15.3753 23.1654C15.5066 23.2173 15.6399 23.2645 15.7757 23.3038C15.655 23.4931 15.5263 23.6791 15.3906 23.8597C15.4128 23.954 15.4376 24.048 15.4647 24.1422C16.0128 23.6244 16.4558 24.9309 16.598 23.2428C16.7645 23.2114 16.7571 23.4225 16.8202 23.7504C16.8428 23.6237 16.8626 23.5183 16.8855 23.377C16.9825 23.5206 17.0955 23.0452 17.1774 23.1746C17.2612 23.3028 17.2747 23.7579 17.3096 22.994C17.3608 23.2149 17.4179 23.3981 17.4794 23.6022C17.4898 23.555 17.5001 23.5079 17.5102 23.4609L17.4962 23.4614C17.5128 23.3337 17.5294 23.2067 17.5458 23.0791C17.6122 23.1648 17.6788 23.2502 17.7453 23.3359C17.7456 22.9695 17.99 23.1065 18.0709 22.8535C18.2011 23.2374 18.3039 24.472 18.5124 24.2314C18.4803 23.9257 18.4484 23.6209 18.4164 23.3153C18.4739 23.3747 18.5316 23.434 18.5895 23.4934C18.6012 23.5931 18.6124 23.6928 18.6241 23.7925C18.5948 23.7638 18.5659 23.7353 18.5366 23.7056C18.5741 23.8727 18.6111 24.0391 18.6483 24.2063C18.7064 23.949 18.7646 23.6916 18.823 23.4343C18.6991 23.2538 18.5752 23.0732 18.4514 22.8927C18.5672 22.6564 18.6804 22.8725 18.7765 22.6119C18.9148 23.0259 18.8979 23.2727 18.8956 23.735C18.9143 23.7121 18.9331 23.6895 18.952 23.667L18.938 23.6676C18.9526 23.6498 18.9675 23.6325 18.9837 23.6154C18.9537 23.9409 18.9467 24.1738 18.938 24.2682L19.0031 24.2654C18.981 24.3061 18.942 24.325 18.8766 24.3197C18.9031 24.4493 18.9293 24.5727 18.9558 24.7074C18.9857 24.6869 19.0145 24.7652 19.0447 24.7521L18.938 24.7567C18.9359 24.755 18.9336 24.7511 18.9312 24.7442C18.8376 24.5983 19.0187 23.801 19.1333 23.5407C19.1659 23.393 19.004 23.6495 19.0392 23.4447C19.0712 23.1908 19.1857 23.1376 19.2413 23.0816C19.2925 23.0323 19.2844 22.9126 18.938 22.6495C18.9236 22.6469 18.8798 22.654 18.8653 22.6526C18.8635 22.6504 18.8616 22.6481 18.8597 22.6459C18.861 22.6411 18.8623 22.6364 18.8635 22.6319C18.8784 22.6333 18.9233 22.626 18.938 22.6287C19.1876 22.3345 19.2872 22.5668 19.5766 22.7982C19.625 22.6317 19.6632 22.4627 19.6921 22.2899C19.8857 22.453 20.0628 22.674 20.156 22.8988C19.7472 23.0988 19.7076 23.5097 19.4604 23.6833C19.3491 23.7802 19.2208 23.8396 19.081 23.9C18.9477 23.9636 18.7691 24.0237 18.7194 24.2479C18.582 24.1746 18.527 24.0867 18.4856 24.0889C18.3972 24.1057 18.3112 24.1323 18.2285 24.1723C18.2844 24.1982 18.3469 24.2363 18.425 24.2765C18.2382 24.2852 18.0548 24.257 17.8806 24.2284C18.0106 24.0896 18.2365 24.1014 18.4965 24.1131C18.5829 24.1269 18.6742 24.1408 18.77 24.1562C18.8019 24.1398 18.8253 24.1255 18.8416 24.1131C18.9689 24.0497 18.6553 24.0636 18.5881 24.0725C18.8293 24.0289 19.0502 23.9833 19.3053 23.9471C19.0494 24.0228 19.027 24.0563 19.0664 24.1131C19.1024 24.1757 19.1912 24.2391 19.2023 24.2635C19.2713 24.4184 18.7783 24.2783 18.7628 24.3709C18.7474 24.4581 19.0307 24.6079 18.5302 24.6205C18.8054 24.6543 19.0908 24.6842 19.3421 24.7091C19.4107 24.8857 19.0898 24.8042 19.0459 24.8138C18.3177 24.9432 18.8733 25.1619 18.8572 25.4781C18.9502 25.4667 19.0353 25.4512 19.1237 25.4344C19.6238 25.8232 19.4966 25.6288 19.7405 25.4595C19.6329 25.6436 20.0781 25.9004 20.1682 26.1033C20.259 26.3059 19.9175 26.4759 19.696 26.4828C19.4796 26.1623 19.7561 26.0262 19.7415 25.7676C19.4632 25.7119 19.2276 25.6648 18.9243 25.5946C19.4497 25.899 19.0448 25.853 18.9578 25.8625C18.6995 25.8968 19.1744 26.0778 18.6382 25.9459C18.8142 26.0129 18.9621 26.0692 19.1268 26.1311C18.9523 26.3583 18.5393 26.4481 19.0746 26.9249C18.6658 26.7308 18.2745 26.539 17.8588 26.3378C18.113 26.5854 17.7644 26.4951 17.7925 26.6056C17.8194 26.718 18.1517 26.8742 18.2179 27.0377C18.2297 27.0683 18.0138 26.9831 18.132 27.1127C18.2553 27.2369 19.2053 28.0905 18.2717 27.5045C18.2151 27.5808 18.1318 27.6314 18.0638 27.696C18.0645 27.5869 18.0644 27.4802 18.061 27.3728C17.7968 27.2882 17.537 27.1971 17.2782 27.1015C17.4686 27.2447 17.6622 27.3907 17.8496 27.5328C17.9695 27.8661 17.5674 27.7551 17.5178 27.9688C17.5096 28.0026 17.8673 28.1963 17.7739 28.2645C17.7662 28.2703 17.7551 28.2752 17.7403 28.279C17.5472 28.3315 16.7994 27.8622 16.901 28.2681C16.9074 28.2877 17.3677 28.7852 16.955 28.5498C16.8622 28.4957 16.8005 28.3287 16.6653 28.2729C16.5306 28.2172 16.309 28.2943 16.0543 28.0832C16.1423 28.1602 16.2405 28.2322 16.333 28.3073C16.3511 28.3706 16.3681 28.435 16.3846 28.4981C16.2307 28.3612 16.0765 28.2243 15.9236 28.0879C16.145 28.5539 16.6312 29.1789 16.2259 29.2198C16.4991 29.3695 16.7767 29.5155 17.0555 29.6574C16.9219 29.4933 16.7869 29.3287 16.6518 29.1659C16.8133 29.1185 16.974 29.068 17.1359 29.0137C16.9746 28.8355 16.8127 28.659 16.6496 28.4827C16.6975 28.4756 16.7449 28.4675 16.7928 28.4599C16.9166 28.5809 17.0393 28.7017 17.1623 28.8235C17.1814 28.7377 17.1991 28.6511 17.2159 28.5658C17.8875 29.3521 16.8632 28.8361 17.5123 29.39C17.3898 29.328 17.2668 29.2651 17.1449 29.2005C17.4394 29.4914 17.3013 29.4662 17.1662 29.5143C17.3344 29.6331 17.5035 29.7468 17.6733 29.8667C17.3752 29.7649 17.2399 29.9456 17.0685 29.9608C16.9938 29.9671 16.821 29.7153 16.7841 29.7024C16.5944 29.6324 16.8457 30.1195 16.7907 30.1151C16.467 30.0861 15.6976 29.448 15.9819 30.0754C16.2581 30.04 16.121 30.0738 16.4288 30.2835C16.5249 30.3497 16.9095 30.3137 16.5601 30.4975C16.5155 30.5247 15.5556 30.4636 15.3723 29.9226C15.4056 30.1172 15.4694 30.3189 15.5116 30.5177C14.429 29.6222 15.3359 30.5578 15.8564 31.0551C15.8272 31.0842 15.8027 31.1146 15.7708 31.1417C15.3495 30.5131 14.9857 30.7585 15.1078 31.1472C15.1478 31.2774 15.4111 31.3737 15.3905 31.5371C15.3129 31.5322 15.2203 31.5191 15.137 31.5102C15.5027 31.8272 15.4833 32.0777 15.7857 32.4558C15.4277 32.1892 14.7995 31.5193 14.5386 31.0938C14.5943 31.3054 14.6473 31.5184 14.7004 31.7323C14.8034 31.7979 14.9063 31.8622 15.0099 31.9271C14.5937 31.8665 14.7061 32.6466 14.05 31.8663C14.0235 31.895 13.9965 31.9227 13.9699 31.9512C14.0623 32.0966 14.1549 32.2421 14.2469 32.3877C14.0165 32.372 13.7877 32.3522 13.5604 32.331C13.6243 32.1546 13.5107 31.9351 13.7573 32.0016C13.5911 31.8781 13.4239 31.7538 13.2597 31.6285C13.3761 32.1991 13.5473 32.5072 13.1558 32.5863C13.1375 32.5905 12.6583 32.3781 12.6266 32.3468C12.4796 32.2065 12.3709 31.9314 12.2987 31.859C12.0955 31.6571 11.4435 31.2436 11.3897 31.151C10.7345 30.0194 11.5406 29.4448 11.7121 29.2319C12.8059 27.9155 14.0855 27.0382 14.9983 26.1317C15.0026 26.1233 15.0231 26.1025 15.0276 26.0941C15.637 25.5096 16.0626 24.8907 16.0816 24.4381C16.0814 24.4262 15.8909 24.3942 15.8837 24.3882C15.8409 24.3541 16.142 24.3776 16.1561 24.3671C16.185 24.3474 15.908 24.3195 15.9099 24.3048C15.921 24.2352 15.9616 24.1762 15.9953 24.1131C16.0274 24.293 16.0053 24.6182 16.3495 25.3062C16.6542 26.0222 17.7897 26.7935 18.3986 26.8622C18.5448 26.892 18.4486 26.6532 18.6629 26.7219C18.7192 26.7402 18.828 26.8526 18.938 26.9464L19.2311 26.9339C19.2054 27.0182 19.1757 27.096 19.1454 27.101C18.9174 27.1381 18.7153 27.0456 18.4738 27.0714C18.3417 27.0858 18.1406 27.0738 17.9931 27.0916C17.9322 27.0989 17.8803 27.2404 17.8214 27.2676C17.7611 27.284 17.5717 27.2697 17.5102 27.2809C17.5039 27.2824 17.4976 27.2834 17.4914 27.2837C17.355 27.2904 17.3868 26.9736 17.3666 26.9538C17.2793 26.8667 17.2591 27.2137 17.1714 27.2029C17.0073 27.1806 17.01 26.9492 16.8028 26.956C16.6557 26.9621 16.2904 27.1112 16.0808 27.1349C15.6563 26.8072 15.0556 26.7829 14.5675 26.7143C14.2791 26.6737 14.366 26.3559 14.2601 26.3173C13.8895 26.1794 13.4196 26.417 13.0446 26.2218C12.6063 25.9901 12.3612 25.5545 12.0546 25.2166L12.1336 25.281C12.092 25.2383 12.049 25.1966 12.0041 25.1563C11.938 25.0968 11.7608 25.3368 11.6862 25.2822C11.411 25.0827 11.0498 24.7899 10.8751 24.5097C10.6784 24.1946 10.9538 23.838 10.6972 23.6057C10.6224 23.536 10.2833 23.71 10.1504 23.5779C9.93752 23.3627 10.1027 22.9331 10.0657 22.7498C10.0131 22.4924 9.7378 22.849 9.6586 22.4937C9.65549 22.4786 9.89717 22.3363 9.8614 22.2719C9.75984 22.0815 9.55495 22.1643 9.49182 21.8521C9.48305 21.8184 9.65038 21.3659 9.64813 21.3327C9.60511 21.1046 9.6447 20.6591 9.58206 20.5415C9.35499 20.1137 8.95838 20.4617 9.84518 20.0683C9.76591 20.0151 9.68682 19.9605 9.60848 19.904C9.46587 19.7989 9.3258 19.6868 9.19263 19.5617C9.38538 19.6877 9.69983 19.2208 9.68825 19.1882C9.56967 18.8897 9.19787 19.0192 9.31206 18.643C10.036 19.2571 9.48493 18.1886 9.54844 17.9351C9.74501 16.8077 10.4699 15.9101 11.1677 15.114C11.392 14.8526 11.6031 14.4244 11.8704 14.1902L11.7973 14.2536C11.8072 14.2444 11.8172 14.2355 11.8272 14.2269C11.891 14.1712 11.969 14.3573 12.0269 14.3127C12.0841 14.2674 11.8822 14.157 11.9544 14.1106C12.4207 13.8189 12.9629 13.9372 13.1291 13.2555C13.1864 13.3072 13.2145 13.3578 13.2881 13.4089C13.4246 12.7999 14.4067 13.0448 14.6704 13.0541C15.1072 13.0466 15.1258 12.7282 15.4373 12.717C15.8545 12.702 16.4821 13.2303 16.0967 12.2825C16.3612 12.2137 16.6195 12.1803 16.8851 12.2574C16.9145 12.2662 16.9085 12.5187 16.9201 12.5232C16.9925 12.5555 17.0054 12.3295 17.0542 12.3171C17.1843 12.2846 16.9817 12.5616 17.1634 12.4801C17.2402 12.4458 17.2881 12.3116 17.4453 12.2577C17.4826 12.2443 17.5263 12.236 17.5781 12.2358C19.1308 12.2106 21.1182 12.7437 22.6259 13.8272C22.729 13.8997 22.7977 13.6512 22.9215 13.7566C23.3192 14.0861 23.7199 14.8808 24.0106 15.2434C24.0208 15.2509 24.0437 15.2822 24.0538 15.2899C24.0896 15.3343 24.1252 15.373 24.1608 15.4047C24.4964 15.7096 24.7049 15.4087 25.0071 15.5533C25.0652 15.582 24.8749 15.6667 24.9034 15.7097C25.1001 16.0007 25.0569 16.5142 25.1477 16.7644C25.2084 16.9317 25.4783 16.762 25.5596 16.8615C25.6799 17.0117 25.4771 17.327 25.5085 17.4158C25.6594 17.8356 26.0151 18.0257 26.0255 18.4588C26.0868 18.4209 26.1447 18.3896 26.2056 18.3539C26.3567 18.8239 26.4682 19.2898 26.5488 19.7452C26.6073 19.711 26.6664 19.6772 26.7257 19.6422C26.7987 20.1917 26.092 20.2397 27.5345 19.9494C27.5924 19.9819 27.6588 20.0161 27.7122 20.0485C26.9631 20.1568 26.47 20.564 26.3155 20.9596C26.3041 20.9862 27.0561 21.1142 26.1858 21.1669C26.4022 21.197 26.5511 21.2148 26.741 21.2431C26.4842 21.346 26.2292 21.4423 25.9712 21.5344C26.0128 21.5739 26.0528 21.6139 26.0941 21.6536C26.2649 21.6519 26.4418 21.6388 26.6099 21.645C26.6384 21.8056 26.5166 22.0966 26.4728 22.2831C26.4616 22.3317 26.4559 22.3737 26.4601 22.4055C26.5126 22.7812 26.9513 23.216 26.4279 23.4781C26.4656 23.6286 26.8133 23.5124 26.7496 23.73C26.5783 23.7381 26.4141 23.7445 26.2375 23.7513C26.9719 24.0097 26.5089 24.0035 26.3194 24.2209C26.1899 24.3682 26.3564 24.5026 26.294 24.6528C26.278 24.6906 26.0598 24.6467 26.0623 24.6744C26.0702 24.7655 26.3213 25.0795 26.3152 25.1463C26.2729 25.7411 26.1026 26.2301 25.8487 26.7324C25.8217 26.7866 26.0548 26.7828 26.0259 26.8392C25.9794 26.9301 25.6794 26.7644 25.6451 26.8131C25.5507 26.9481 25.8862 27.0689 25.824 27.2886C25.617 28.0143 25.0112 28.6686 24.6223 29.2983C24.6108 29.3185 24.7925 29.4208 24.7815 29.4441C24.7065 29.5953 24.3788 29.5945 24.3041 29.7218C24.1795 29.9316 24.3248 30.2467 24.1867 30.4504C24.0919 30.5904 23.9842 30.712 23.8709 30.8277C23.8695 30.8307 23.8625 30.8383 23.8611 30.8413C23.6553 31.0484 23.434 31.2329 23.2407 31.4671C22.9957 31.7621 22.8045 32.0324 22.5295 32.3402C21.3415 33.668 20.4291 35.3438 18.8529 36.1036C18.813 36.1223 18.7154 35.9651 18.7099 35.9793C18.6593 36.1178 18.7992 36.3234 18.4509 35.9341C18.3859 36.1112 18.5803 36.4541 18.4082 36.5462C18.3165 36.5953 18.0204 36.0612 18.0665 36.4143C18.1076 36.7331 18.4389 36.9053 17.8658 36.8974C17.8504 36.8969 17.5875 36.6306 17.5657 36.7635C17.5422 36.8963 17.7857 37.049 17.6407 37.2473C17.3537 37.6376 16.7791 37.7834 16.3249 38.0634C14.9055 39.3929 12.6414 38.548 11.1114 37.3475C11.0506 37.2759 10.9849 37.2094 10.912 37.151C10.8836 37.1284 10.5073 37.0017 10.3941 37.0112C10.1744 37.0302 9.9872 37.2329 9.82348 37.1496C9.69716 37.0851 9.85757 36.7973 9.70812 36.7223C9.69047 36.7138 9.43103 36.9033 9.38536 36.7879ZM16.0106 17.5041C16.1012 17.8064 16.5302 18.8775 16.3163 18.5905C16.2901 18.5663 16.0008 17.8237 15.8835 17.7402C15.909 17.6342 15.9628 17.5802 16.0102 17.503C16.0103 17.5033 16.0105 17.5037 16.0106 17.5041ZM14.3367 31.2693C14.3901 31.4169 14.4442 31.5645 14.4976 31.712C14.3263 31.7294 14.1551 31.7465 13.9833 31.7649C14.1009 31.5997 14.2191 31.4346 14.3367 31.2693ZM21.1696 22.4422C21.1696 22.4423 21.1696 22.4424 21.1696 22.4426C21.1082 22.3884 21.0463 22.3353 20.9839 22.2831C20.8971 22.2098 20.8094 22.1406 20.721 22.0729C20.831 22.0827 20.9415 22.0931 21.0514 22.104C21.1569 22.1615 21.2618 22.2205 21.366 22.2831C21.4345 22.3238 21.5026 22.3652 21.5706 22.4075C21.4369 22.4197 21.3033 22.4313 21.1696 22.4422ZM22.2464 23.5901C22.1049 23.6629 21.8901 23.6101 21.6713 23.6265C21.6717 23.6266 21.6721 23.6266 21.6725 23.6267C21.6155 23.6311 21.5587 23.6807 21.547 23.7012C21.6843 23.7145 21.8202 23.7246 21.9566 23.7362C22.2512 24.014 21.0212 24.1438 20.6322 23.6091C20.8027 23.6437 20.9722 23.6783 21.1426 23.7137C21.1329 23.4793 21.5389 23.2415 22.2464 23.5901ZM15.1265 18.7848C15.5119 19.2243 15.635 19.2536 15.2346 19.175C15.0975 19.0885 14.9635 18.9965 14.8327 18.8995C14.9896 18.9555 15.1425 19.0177 15.2932 19.0864C15.2933 19.0864 15.2933 19.0864 15.2933 19.0863C15.1475 18.9935 15.0022 18.8992 14.8579 18.804C14.9482 18.7916 15.038 18.7855 15.1265 18.7848ZM17.5018 30.7549C16.6937 29.9524 17.1504 30.4312 17.1121 30.1197C17.0981 30.0119 16.9192 29.9059 16.9253 29.8555C16.9532 29.5844 17.4853 30.1285 17.7204 30.4514C17.6498 30.5538 17.5744 30.6561 17.5021 30.7546C17.502 30.7547 17.5019 30.7548 17.5018 30.7549ZM14.2896 33.5299C14.2895 33.5298 14.2894 33.5297 14.2893 33.5296C14.4929 33.3412 14.6094 33.3603 14.7375 33.1087C14.7888 33.1682 14.8393 33.2284 14.8909 33.2882C14.8562 33.288 14.8221 33.2866 14.7874 33.2864C14.7297 33.3649 14.6711 33.4442 14.6135 33.5226C14.8705 33.3321 14.749 33.4744 14.724 33.6069C14.9637 33.3639 15.2036 33.1209 15.4432 32.878C15.4309 33.017 15.4186 33.1565 15.4064 33.2955C15.3429 33.3533 15.2794 33.4112 15.216 33.469C15.322 33.4233 15.4287 33.3766 15.5348 33.3309C15.4646 33.4062 15.3949 33.4806 15.3248 33.5559C15.3527 33.5499 15.3806 33.5438 15.4086 33.5378L13.2136 33.2364C13.2091 33.1765 13.2044 33.1166 13.1992 33.0564C13.3448 33.2577 13.3254 33.3982 13.4289 33.2558C13.5255 33.4966 13.6208 33.7373 13.7152 33.9793C13.7096 33.9823 13.704 33.9853 13.6983 33.9883L14.7392 34.1313C14.5888 33.9312 14.4392 33.7306 14.2896 33.5299ZM18.4537 29.3393C18.3082 29.5619 18.2304 29.3819 17.8637 28.9513C18.0591 29.0822 18.256 29.2112 18.4537 29.3393ZM20.4814 18.0176C20.177 18.261 19.8871 18.5142 19.6162 18.7718C19.4142 18.8837 19.7381 18.2561 19.9698 18.0852C20.2614 17.8917 20.1229 18.2529 20.4814 18.0176ZM17.6036 17.1269C17.7672 17.3105 17.5899 17.7607 17.5559 18.0263C17.5347 17.7358 17.4975 17.6593 17.4453 17.6249C17.4215 17.6086 17.3947 17.6019 17.3643 17.5864C17.3901 17.5778 17.4175 17.5314 17.4453 17.4712C17.5136 17.3274 17.5836 17.1047 17.6037 17.1257C17.6037 17.1261 17.6037 17.1265 17.6036 17.1269ZM21.4237 20.4359C21.4513 20.4953 21.5716 20.5361 21.4578 20.6228C21.0961 20.6873 21.3953 20.5035 20.8844 20.7065C20.8666 20.6717 20.8487 20.6375 20.8294 20.6044C21.0537 20.5708 21.2086 20.4971 21.4226 20.4364C21.423 20.4362 21.4234 20.4361 21.4237 20.4359ZM19.6327 27.1758C20.0718 27.2974 19.9334 27.1683 19.748 26.8951C20.0612 27.0615 20.4758 27.5192 20.5225 27.6869C20.2252 27.5178 19.9285 27.3473 19.6327 27.1758ZM17.5309 31.0609C17.2493 30.7066 17.424 30.4538 17.625 30.4387C17.6599 30.4987 17.6954 30.5592 17.7307 30.62C17.6662 30.7675 17.5992 30.9149 17.5309 31.0609ZM17.3186 17.5569C17.3348 17.5696 17.3501 17.5792 17.3643 17.5864C17.3487 17.5916 17.3334 17.5842 17.3186 17.5569ZM13.2898 22.1439C12.8949 22.3205 12.9199 22.61 12.8835 22.2606C12.8832 22.2608 12.8829 22.261 12.8825 22.2613C12.8661 22.0315 12.8724 21.9816 12.8191 21.8061C13.3424 21.6304 13.6354 21.7664 13.5583 21.3728C13.5566 21.3678 13.2674 21.5179 13.2792 21.437C13.2829 21.4113 13.5001 21.2445 13.5411 21.1344C13.5532 21.0964 13.5585 20.8722 13.6637 21.1394C14.0142 20.9902 14.3768 20.8587 14.7187 20.7186C14.8384 20.7279 14.1864 21.096 14.2529 21.1803C14.3552 21.3018 15.0038 20.9069 14.2117 21.5016C13.9355 21.5401 13.7977 21.2979 14.3287 21.023C14.2928 20.9309 13.8234 21.0691 13.6501 21.2749C14.1471 21.5668 13.0719 21.7704 13.677 21.9729C13.7909 21.8954 13.9202 21.8208 14.0213 21.7401C13.7259 22.1496 13.4332 22.0865 13.2898 22.1439ZM13.7676 20.6818C14.069 20.6917 14.37 20.6752 14.6631 20.6314C14.2144 20.782 13.7985 20.8895 13.5037 20.8233C13.5911 20.7738 13.6794 20.7266 13.7676 20.6818ZM20.22 24.4692C20.4762 24.5015 20.7086 24.564 20.9502 24.6196C20.7424 24.6583 20.4035 25.47 20.2614 25.0086C20.242 24.9533 20.7404 24.608 20.22 24.4692ZM19.3837 28.1901C19.5659 28.2374 19.7503 28.2814 19.9347 28.3238C19.9507 28.4849 19.9657 28.6495 19.9771 28.8149C19.7811 28.6047 19.5831 28.3965 19.3837 28.1901ZM19.7696 16.9997C19.7922 17.0217 19.5479 17.2962 19.6767 17.2977C19.4977 17.4614 19.349 17.604 19.1982 17.7712C19.2447 17.6087 19.2878 17.4457 19.3285 17.2812C19.27 17.3735 19.2127 17.4658 19.1568 17.5595C19.2561 17.3361 19.3539 17.1182 19.459 16.8928C19.3954 17.4328 19.6552 16.899 19.7696 16.9997ZM23.3035 20.4045C22.7886 20.535 22.4326 20.373 22.3954 20.6134C22.0448 20.6387 21.8536 20.6136 21.7959 20.5033C21.9213 20.4537 22.0453 20.4031 22.1699 20.3512C21.8226 20.4337 21.6861 20.4332 21.4237 20.4359C21.4241 20.4358 21.4245 20.4356 21.4249 20.4355C21.3551 20.2762 21.4712 20.2565 22.02 20.0425C21.7596 20.3294 22.2742 20.1843 22.6212 20.257C22.8595 20.3081 22.7913 20.4648 23.3035 20.4045ZM19.9797 23.245C20.2898 23.3086 20.4901 23.2576 20.6098 23.2742C20.7213 23.2834 20.7926 23.4742 20.5986 23.83C20.4806 23.8032 20.3632 23.782 20.2446 23.7666C20.1974 23.6109 20.1253 23.4267 19.9797 23.245ZM21.6185 21.4206C22.4353 21.3277 23.0529 21.0966 21.7234 21.2407C21.4679 21.3963 22.2136 21.2535 21.6185 21.4206ZM17.7081 15.843C18.0043 15.8949 17.8657 16.8185 17.7498 17.2756C17.744 17.1063 17.7367 16.9368 17.7284 16.7686C17.6807 16.8431 17.6347 16.9184 17.5897 16.9929C17.6244 16.6097 17.6639 16.2256 17.7081 15.843ZM21.8353 26.0318C21.3667 25.6251 21.451 26.1098 21.1651 25.8409C20.9345 25.6328 21.5361 25.7155 21.8619 25.9003C21.857 25.9414 21.8472 25.9858 21.8355 26.0314C21.8354 26.0315 21.8354 26.0316 21.8353 26.0318ZM22.0574 24.8469C21.4434 24.7146 21.6335 24.7157 21.6995 24.8967C21.7193 24.95 21.3885 25.2171 21.9287 25.2315C21.9682 25.1067 22.0159 24.9767 22.0574 24.8469ZM15.0516 17.4827C14.8729 17.2724 14.7681 16.6126 14.8903 16.7158C14.89 16.7155 14.8898 16.7151 14.8896 16.7148C15.1857 17.0101 14.986 17.2095 15.3936 17.6128C14.9091 17.3452 15.5897 18.3382 14.6232 17.0952C14.7168 16.9344 14.8485 17.2437 15.0516 17.4827ZM13.7038 32.5286C13.7036 32.5287 13.7035 32.5288 13.7034 32.5289C13.7274 32.5277 14.0975 32.7556 14.1623 32.8798C13.9262 32.9025 13.8039 32.6658 13.898 33.1298C13.8091 33.0216 13.724 32.916 13.634 32.8073C13.6479 32.6964 13.5846 32.5359 13.7038 32.5286ZM19.5598 25.2241C19.506 25.1368 19.8232 25.0532 19.8202 24.9582C20.8916 25.4601 19.7617 25.6055 19.5598 25.2241ZM15.2637 32.7999C15.2636 32.7995 15.2636 32.799 15.2635 32.7986C15.2638 32.7991 15.2641 32.7996 15.2644 32.8002C15.2642 32.8001 15.2639 32.8 15.2637 32.7999ZM15.6464 22.3837C15.6243 22.4545 15.6034 22.5152 15.583 22.5676C15.5809 22.5725 15.5789 22.5774 15.5768 22.5822C15.5998 22.517 15.623 22.4509 15.6464 22.3837ZM14.7043 17.8889C14.4504 17.742 14.2921 17.324 14.3414 17.1112C14.3547 17.0383 14.3882 16.9935 14.4388 16.9999C14.5428 17.1394 14.6423 17.2616 14.7561 17.4267C14.6588 17.3511 14.6112 17.3536 14.5953 17.3957C14.5936 17.3967 14.5894 17.4013 14.5877 17.4023C14.5368 17.5193 14.7432 17.9163 14.7043 17.8889ZM21.6379 19.0928C21.5012 18.8201 23.0243 18.4721 21.9658 19.0426C21.9443 19.0513 21.6428 19.0971 21.6379 19.0928ZM16.5185 16.7642C16.5092 16.3035 16.3308 16.2106 16.6006 16.2453C16.6335 16.3595 16.6654 16.4743 16.6962 16.5889C16.6344 16.646 16.5752 16.7048 16.5185 16.7642ZM21.6773 16.1127C21.0958 15.9781 20.5131 16.1758 20.0835 17.3789C20.1279 17.3592 20.1725 17.3414 20.2179 17.3229C20.5558 16.8125 20.4696 17.1539 20.5831 17.2628C20.7457 17.0804 20.8547 17.0927 20.9965 16.9416C21.2739 16.6515 21.3452 16.3509 21.6773 16.1127ZM17.7149 32.4019C17.653 32.3174 17.5906 32.2326 17.5293 32.1489C17.5039 32.0163 17.4773 31.8851 17.4507 31.7529C17.5726 31.9125 17.6943 32.0723 17.8159 32.2322C17.7825 32.2891 17.7495 32.3454 17.7156 32.4021C17.7154 32.402 17.7151 32.4019 17.7149 32.4019ZM12.4266 20.5145C13.5735 20.3983 13.3433 20.341 12.7501 20.0857C12.636 20.218 12.5274 20.3609 12.4266 20.5145ZM23.7976 23.2202C23.4711 23.2028 23.1456 23.1846 22.8192 23.1659C23.1462 23.3342 23.5202 23.3506 23.958 23.3143C23.9048 23.2824 23.8511 23.2513 23.7976 23.2202ZM23.5365 25.423C23.6197 25.3798 23.3568 25.3394 23.3637 25.3343C23.5401 25.2184 23.6646 25.2232 23.52 24.9831C23.4585 24.943 23.3932 24.9029 23.3293 24.8632C22.643 24.787 22.9908 24.9386 22.5551 25.0076C22.7901 25.0389 23.0258 25.0681 23.2627 25.0953C23.1879 25.1843 23.1127 25.2713 23.0358 25.3568C23.1018 25.389 23.1671 25.4214 23.233 25.4541C23.3329 25.4446 23.4444 25.4363 23.5365 25.423ZM16.9356 32.6526C16.8436 32.6912 16.7495 32.7294 16.657 32.7671C16.7576 32.9025 16.859 33.0388 16.9596 33.1743C16.9526 33.0002 16.9456 32.8255 16.9356 32.6526ZM13.7769 22.2958C13.8264 22.2613 13.8758 22.226 13.9251 22.1891C13.87 22.2394 13.8215 22.2729 13.7769 22.2958ZM12.9621 31.9196C12.8054 31.8854 12.7229 32.0368 12.6104 32.0837C12.8574 32.4277 13.0406 32.1593 13.2757 32.3072C13.2462 32.2351 13.028 31.934 12.9621 31.9196ZM18.1074 15.9063C18.1553 15.6988 18.2057 15.4927 18.2585 15.2861C18.3302 15.3167 18.4006 15.3497 18.4713 15.3826C18.4976 15.2118 18.5242 15.0395 18.5508 14.8687C18.175 15.0461 18.3191 14.5642 18.1725 14.0568C18.1588 14.6734 18.1369 15.2896 18.1074 15.9063ZM15.0417 35.3623C15.1607 35.144 15.1011 34.9207 14.7141 34.5555C14.7171 34.6963 14.7186 34.8379 14.7201 34.9792C14.827 35.107 14.9346 35.2347 15.0417 35.3623ZM17.3452 24.1322C17.4246 24.0543 17.4688 24.1246 17.5102 24.2083C17.52 24.2065 17.5502 24.2088 17.5598 24.2062C17.6245 24.3214 17.68 24.4651 17.7627 24.2281C17.6883 24.1421 17.6139 24.0553 17.5396 23.9689C17.5339 23.9704 17.516 23.9691 17.5102 23.9701C17.4826 23.9337 17.4555 23.8972 17.4289 23.8606C17.4022 23.9511 17.374 24.0421 17.3452 24.1322ZM11.8079 16.2573C11.5265 16.2305 12.3538 17.0374 11.4572 16.8902C11.6339 17.091 11.8219 17.252 12.0108 17.4254C11.7548 17.3316 11.4906 17.2469 11.2324 17.1639C11.2323 17.1641 11.2322 17.1643 11.2321 17.1645C11.17 17.5014 11.5718 17.4492 11.8249 17.5832C11.9304 17.6357 11.6622 17.7487 11.926 17.7923C12.3711 17.87 12.3256 17.4122 12.7979 17.6831C12.5786 17.7052 12.6002 17.9997 12.9581 18.0897C13.3401 18.2068 12.8547 17.7057 13.2123 17.7565C12.3634 17.4821 12.8397 17.2274 13.4034 17.5915C13.1341 17.1014 12.8322 17.142 12.6986 17.3938C12.3648 16.9728 12.4582 17.3332 12.0723 17.1568C11.9466 16.8451 12.5528 16.4056 11.8079 16.2573ZM23.2897 17.5992C23.1701 17.4686 23.2372 17.0603 22.8191 17.2224C22.5811 17.3224 22.5786 17.6421 22.1607 17.74C22.2809 17.8362 22.4263 17.7784 22.691 17.5557C22.7464 17.562 22.8014 17.57 22.8561 17.5784C22.8107 17.631 22.766 17.6831 22.7198 17.7349C22.8481 17.6714 22.9761 17.6098 23.1054 17.5482C23.1052 17.5985 23.1046 17.6488 23.1023 17.6991C23.165 17.6648 23.2219 17.6386 23.2897 17.5992ZM18.3915 26.4003C18.404 26.3655 18.416 26.3314 18.4271 26.2959C18.3495 26.2636 18.2685 26.2304 18.1887 26.1974C18.1258 26.1709 18.0629 26.1445 18.0001 26.1179C18.2272 26.2087 18.67 26.2152 18.4598 26.0437C18.3531 25.9609 17.8991 25.847 17.8767 25.69C17.8616 25.79 17.8818 25.9012 17.8752 26.0081C17.7543 25.9415 17.6317 25.8753 17.5103 25.8098C17.5101 25.8098 17.5099 25.8098 17.5097 25.8097C17.4687 25.8245 17.4258 25.8389 17.3847 25.8528C17.7219 26.0327 18.0571 26.2149 18.3915 26.4003ZM24.4518 23.1422C24.1928 22.9711 24.0544 22.919 23.6147 22.9603C23.6145 22.9604 23.6143 22.9605 23.6141 22.9607C23.8041 23.025 23.9935 23.092 24.1823 23.1617C24.272 23.1556 24.362 23.1493 24.4518 23.1422ZM13.9452 24.2735C15.096 23.0338 13.9301 23.5039 13.7161 24.0328C13.7083 24.0607 14.0086 24.0998 13.9452 24.2735ZM17.6691 15.3313C17.755 15.3203 17.842 15.312 17.9293 15.304C17.9222 15.0993 17.9128 14.8952 17.9023 14.6904C17.8187 14.9025 17.7411 15.1169 17.6691 15.3313ZM16.2587 35.4502C16.5887 35.7759 16.8696 35.7809 16.6726 35.3134C16.592 35.2994 16.5124 35.2845 16.4326 35.2697C16.4875 35.1617 16.5388 35.0487 16.5952 34.9423C16.2315 34.4224 16.344 34.7947 16.092 34.7578C16.0518 34.7518 15.4534 34.209 15.7401 34.7322C15.7984 34.8402 16.0067 34.7967 16.0968 35.166C16.162 35.1548 16.2009 35.1201 16.256 35.1005C16.346 35.222 16.436 35.3436 16.5263 35.4648C16.4372 35.4604 16.3476 35.4553 16.2587 35.4502ZM22.6247 16.791C22.5912 16.7396 22.5526 16.71 22.5086 16.699C22.5045 16.6959 22.4953 16.6833 22.4912 16.6803C22.3566 16.6497 22.1759 16.7909 21.9121 17.004C21.9693 17.0235 22.0264 17.0441 22.0835 17.0658C22.086 17.0677 22.0915 17.0752 22.0939 17.0771C22.1447 17.0976 22.1954 17.1188 22.2462 17.1407C22.3722 17.0245 22.4984 16.9085 22.6247 16.791ZM17.827 34.487C17.9615 34.4758 17.7001 34.2169 17.6932 34.1346C17.6675 33.8244 17.919 33.9582 17.9493 33.725C17.9845 33.787 18.0175 33.8448 18.0515 33.905C18.0517 33.9049 18.0518 33.9048 18.0519 33.9047C18.8702 33.638 18.0181 33.2673 17.7354 33.6643C17.6426 33.5648 17.5502 33.4648 17.4582 33.366C17.4415 33.6813 17.4261 33.9806 17.827 34.487ZM11.6424 21.4993C11.5659 21.538 11.0134 21.5813 11.3222 21.7196C12.1222 21.629 11.6645 21.4943 11.9394 21.3484C12.0265 21.3773 12.112 21.405 12.1991 21.4282C12.3247 21.0867 12.1406 21.0898 11.6117 21.3481C11.5763 21.3671 11.7192 21.4627 11.6424 21.4993ZM12.4851 23.6756C13.3437 22.8992 12.7127 22.9793 12.4373 23.2059C12.4657 23.2624 12.6438 23.1682 12.6198 23.272C12.597 23.3764 12.4083 23.573 12.4851 23.6756ZM15.9937 14.4199C15.9838 14.4163 15.7664 13.9643 15.8596 14.3348C16.1848 15.1865 16.3161 14.5755 16.2285 14.2713C16.1387 14.302 16.1032 14.4461 15.9935 14.4187C15.9935 14.4191 15.9936 14.4195 15.9937 14.4199ZM15.2918 36.4245C15.3128 36.4497 15.6027 36.4952 15.5265 36.3274C15.4338 36.1433 15.3231 35.9533 15.2211 35.7666C15.2306 35.9956 14.9465 36.0007 15.2922 36.4243C15.292 36.4244 15.2919 36.4244 15.2918 36.4245ZM26.0016 30.2345C25.6497 29.9329 26.1131 29.9611 25.5251 29.5563C25.538 29.4907 25.5499 29.4238 25.5619 29.3586C25.7194 29.5523 25.8773 29.7451 26.0355 29.9383C26.025 30.0373 26.0145 30.136 26.0023 30.2355C26.0021 30.2352 26.0019 30.2349 26.0016 30.2345ZM27.7538 32.8223C27.3949 32.2042 27.4506 31.929 26.8823 31.5305C27.0109 31.7387 27.1388 31.9475 27.2667 32.1563C27.0915 32.0491 26.9167 31.9414 26.7434 31.8335C26.7742 31.9258 26.8046 32.0184 26.8346 32.1099C26.5604 31.7842 26.2868 31.4565 26.014 31.1284C26.0751 31.1614 26.1371 31.195 26.1983 31.2278C26.1004 30.8752 26.1327 30.7366 26.2281 30.5882C26.1575 30.5154 26.0875 30.4433 26.0171 30.3703C26.1842 30.4602 26.3519 30.5498 26.5197 30.6383C26.5612 30.8159 26.6052 31.0145 26.6413 31.1812C27.121 31.6554 27.0615 31.2396 27.0581 31.069C27.0535 30.836 27.2189 31.1073 27.2202 30.9404C27.2206 30.9142 27.0725 30.7154 27.0951 30.693C27.2091 30.5824 27.5351 30.4947 27.746 31.0636C27.4895 31.1682 27.5852 31.6777 27.2677 31.7004C27.7206 32.1975 27.7431 32.4643 27.7538 32.8223ZM30.0017 28.0203C30.1973 28.2897 29.996 28.3173 29.7622 28.2378C29.7621 28.2379 29.7621 28.2379 29.762 28.238C29.7101 28.221 29.3605 27.963 29.4213 27.9232C29.5201 27.8607 30.0631 28.2731 29.7608 27.9192C29.8429 27.9562 29.9191 27.9856 30.0017 28.0203ZM30.1375 27.8025C30.3106 27.856 30.6809 28.2115 30.5146 28.1926C30.5149 28.1929 30.5152 28.1931 30.5155 28.1934C30.4462 28.185 30.1897 27.863 30.41 28.2361C30.1504 28.0474 29.9138 27.8761 29.6643 27.6915C29.6816 27.664 29.6945 27.6366 29.7132 27.6087C30.0948 27.9706 29.9659 27.749 30.1375 27.8025ZM27.6746 30.7525C27.3928 30.3728 27.3535 30.4075 27.084 30.2015C27.1578 30.1639 27.2327 30.1262 27.3061 30.088C27.4301 30.3091 27.5527 30.53 27.6746 30.7525ZM26.0188 31.8701C26.0187 31.8702 26.0186 31.8703 26.0185 31.8703C26.0372 31.9478 26.0559 32.0256 26.0742 32.1019C25.9655 31.9718 25.8575 31.8421 25.7492 31.7118C25.7567 31.8979 25.7608 32.0858 25.7664 32.2735C25.491 31.8379 25.6861 31.8085 25.5642 31.456C25.7692 31.5046 25.9969 31.7109 26.2518 32.0657C26.1743 32.0009 26.0964 31.9349 26.0188 31.8701ZM28.7347 16.7847C28.7423 16.9306 28.7533 17.076 28.7677 17.2206C28.8209 17.2728 28.8685 17.3112 28.9215 17.3754C28.8608 16.7503 29.0072 17.2793 29.1172 17.2181C29.459 17.0396 29.3336 16.0874 29.7769 17.4742C29.4995 17.4223 29.6441 18.0801 29.5799 18.6001C29.498 18.2177 29.5566 17.3282 29.4271 17.1592C29.2736 17.5917 29.1909 18.0002 29.1215 18.2956C29.1438 18.3592 29.1658 18.4231 29.1874 18.487C29.1967 18.4404 29.2077 18.3935 29.2201 18.3468C29.2385 18.5276 29.2624 18.706 29.2927 18.8866C29.2095 18.4854 29.2054 18.7238 29.0814 18.2709C29.0259 18.0693 28.986 17.7789 28.963 17.5784C28.8646 17.4922 28.7615 17.4193 28.6518 17.3455C28.6365 17.1746 28.6275 17.0022 28.6247 16.829C28.6605 16.8127 28.6969 16.7984 28.7335 16.7832C28.7339 16.7837 28.7343 16.7842 28.7347 16.7847ZM28.9664 33.5155C28.7906 33.0363 28.9493 32.8059 29.4083 33.1284C29.2625 33.2594 29.1153 33.3889 28.9664 33.5155ZM26.4636 32.3571C26.4048 32.2971 26.347 32.2376 26.2884 32.1775C26.2544 32.0152 26.2202 31.8541 26.1841 31.6928C26.33 31.8824 26.4764 32.0717 26.6226 32.2599C26.5699 32.2927 26.5165 32.3245 26.4636 32.3571ZM29.4267 29.6692C29.4043 29.7099 29.3961 29.7069 29.3324 29.7195C29.3326 29.7196 29.3328 29.7197 29.333 29.7198C29.3083 29.7257 29.0788 29.7466 28.9703 29.5964C29.0341 29.5341 29.1072 29.4708 29.1734 29.4088C29.2581 29.4953 29.3407 29.5825 29.4267 29.6692ZM28.5513 30.3046C28.551 30.3043 28.5506 30.3041 28.5503 30.3039C28.5067 30.3042 28.4458 30.2811 28.4127 30.2954C28.3207 29.9943 28.6706 30.3786 28.6618 30.1926C28.6516 30.0062 28.5116 29.7479 29.0542 30.2185C29.0978 30.3221 29.1688 30.4627 29.2222 30.581C28.9124 30.4733 29.0543 30.7042 29.1342 31.0042C28.9396 30.7704 28.7461 30.5382 28.5513 30.3046ZM30.5421 18.1045C30.6086 17.7581 30.5908 18.1041 30.592 18.1085C30.5919 18.1088 30.5918 18.1092 30.5917 18.1096C30.835 17.8164 30.5426 18.2977 30.7055 18.38C30.6653 18.4622 30.626 18.5498 30.5891 18.6341C30.5793 18.4608 30.5646 18.2646 30.5421 18.1045ZM33.3382 23.1622C33.2361 23.1539 33.1337 23.1458 33.0316 23.1372C33.0686 23.0076 32.6689 22.9445 33.0432 22.8648C33.1443 22.9607 33.2429 23.06 33.3395 23.1624C33.339 23.1623 33.3386 23.1623 33.3382 23.1622ZM30.5036 29.6594C30.5218 29.9198 30.4865 30.0759 30.1501 29.9697C30.1497 29.9695 30.1493 29.9693 30.149 29.9691C30.1288 29.962 30.013 29.7757 29.9664 29.7457C29.9643 29.7924 29.9728 29.8527 29.9746 29.904C29.8523 29.7834 29.7304 29.6626 29.609 29.5426C29.711 29.5122 29.8136 29.4802 29.9153 29.4481C29.8347 29.3866 29.7548 29.3257 29.6745 29.2638C29.6949 29.1712 29.7151 29.0783 29.7334 28.9863C29.9142 29.2036 30.094 29.422 30.2737 29.6417C30.3506 29.6482 30.4255 29.6533 30.5036 29.6594ZM34.3732 20.7406C34.2679 20.7862 34.0751 20.774 33.9874 20.8294C33.9007 20.8832 34.118 20.9182 33.8041 20.954C33.7539 20.9112 33.6969 20.8689 33.6438 20.8282C33.1139 21.084 33.6427 21.1524 32.9476 21.2548C33.1084 21.0906 33.0036 20.9833 32.7874 20.9004C33.3334 20.7845 33.8367 20.8437 34.3312 20.6449C34.3448 20.6762 34.3619 20.7089 34.3719 20.7405C34.3723 20.7406 34.3728 20.7406 34.3732 20.7406ZM21.9239 36.8484C21.8762 36.7341 21.5281 36.6923 21.6674 36.364C21.7017 36.2831 22.3827 35.4913 22.4836 35.399C22.8246 35.0894 22.9705 35.1552 23.0842 34.8358C23.1225 34.8727 23.1701 34.8988 23.2118 34.9319C23.4329 34.7152 23.6535 34.4991 23.8741 34.2834C23.7964 34.2679 23.7185 34.2524 23.6401 34.2376C23.7132 34.1658 23.7866 34.0939 23.8598 34.0221C24.0175 34.1901 24.216 33.8221 24.5679 33.6602C24.6302 33.453 24.6913 33.2459 24.7539 33.039C24.7801 33.101 24.8183 33.1673 24.8364 33.2266C25.2272 32.8764 25.0449 32.8633 25.1009 32.7806C25.4178 32.3136 25.6575 32.9828 26.2552 32.5045C26.2467 32.3702 26.2332 32.2334 26.2224 32.098C26.3124 32.0567 26.4027 32.0156 26.4927 31.9744C26.27 32.5097 26.3172 32.8361 26.2676 33.2662C26.3009 33.2703 26.3346 33.274 26.3669 33.2784C26.536 33.1123 26.7047 32.9472 26.8738 32.7811C26.9205 32.7905 26.9673 32.8004 27.0139 32.8098C26.3633 33.2551 26.4778 33.3636 26.2565 33.8259C25.9864 33.9375 26.0242 33.7332 25.6544 34.0858C26.1784 34.0743 26.0452 34.7494 26.6002 34.6965C26.6115 34.6954 26.6252 34.6914 26.6409 34.685C26.6512 34.6927 26.6664 34.6982 26.6758 34.6894C26.636 34.5056 26.3499 34.036 26.5286 33.986C26.5627 34.0502 26.6333 34.1603 26.6818 34.2424C26.7921 33.7928 26.8509 33.5267 27.3204 33.5952C27.1697 33.4113 27.019 33.2262 26.8689 33.0419C26.8752 33.1805 26.8825 33.3205 26.8882 33.4591C26.628 33.1627 26.5925 32.9788 26.415 33.1028C26.2702 33.203 26.453 33.2887 26.477 33.4119C26.5096 33.5802 26.29 33.3522 26.3279 33.5389C26.3566 33.6821 26.5833 33.9196 26.4182 33.9297C26.2386 33.5477 26.0501 33.1552 25.865 32.7702C25.9453 32.8302 26.0262 32.8913 26.1073 32.9519C26.1401 33.0642 26.1723 33.1751 26.2044 33.2877C26.1974 33.052 26.1873 32.8314 26.1758 32.5886C26.4785 33.1134 26.4611 32.8521 26.479 32.7536C26.5069 32.5997 26.6629 32.9967 26.6838 32.8986C26.7047 32.7991 26.5058 32.3722 26.6677 32.3809C26.7639 32.6415 26.9789 32.786 27.1055 33.0004C27.2321 33.2149 27.147 33.3405 27.4127 33.4863C27.51 33.1679 26.7384 32.5526 26.7925 32.3282C26.8525 32.0613 27.7858 33.2887 27.9251 33.5963C28.0347 33.8383 27.8618 33.8956 27.9676 34.1383C28.4962 34.341 27.964 33.5824 27.9019 33.4046C27.6747 32.7569 28.594 34.2629 28.4102 33.6107C28.5997 33.8797 28.7704 34.1215 28.9518 34.3797C28.9499 34.307 28.925 34.2265 28.9367 34.1591C28.4427 33.7257 28.5547 33.6783 28.602 33.6425C28.6765 33.5854 28.375 33.4185 28.3476 33.3386C28.274 33.1249 28.4153 33.1427 28.1968 32.9527C28.2975 33.0419 28.4011 33.1293 28.5026 33.2164C28.496 33.0179 27.8679 31.7724 27.8476 32.1339C27.5604 31.7116 27.7657 31.8644 27.8599 31.8906C27.9536 31.9171 27.7568 31.6585 27.8337 31.6755C28.1407 31.7436 28.3735 32.265 28.6096 32.6328C28.6478 32.2255 28.3146 32.2322 28.5022 31.8323C28.3122 31.5303 27.9401 31.3403 27.9295 31.0886C28.3308 31.5574 28.6916 31.8382 28.9916 31.8601C28.9193 31.7362 28.846 31.6116 28.7731 31.4882C29.2224 31.8566 29.5522 32.352 29.2764 31.665C30.0095 32.7436 29.544 32.0515 30.0395 32.3267C30.1404 32.3813 30.2379 32.651 30.3712 32.7176C30.4317 32.7473 30.351 32.5496 30.5025 32.6271C30.5763 32.6664 31.0186 32.9476 30.9436 32.6977C30.4752 32.271 30.2696 31.741 29.8059 31.4537C30.1144 31.3566 30.075 30.9861 30.3865 31.8556C30.5707 31.9475 30.7553 32.0375 30.9405 32.126C30.8817 31.9773 30.824 31.8291 30.7646 31.6818C31.1176 32.0596 31.2092 32.1735 31.3101 31.9573C31.322 32.1123 31.3358 32.2675 31.3455 32.4244C31.4129 32.5042 31.4753 32.5941 31.5455 32.6673C31.5032 32.4392 31.6925 32.1484 31.6564 31.9925C31.6212 31.8367 31.4815 31.9163 31.4074 31.8027C30.7918 30.8705 31.3363 31.4728 31.3039 31.2421C31.2832 31.1069 31.064 31.1493 31.0614 31.0857C31.0514 30.8536 31.5109 31.2227 31.6164 31.1288C31.347 30.9283 31.0767 30.7211 30.8093 30.5137C30.9211 30.4292 31.0347 30.3198 31.049 30.1528C31.0548 30.0873 30.8514 29.9421 30.8454 29.9246C30.8136 29.836 30.8292 29.6261 30.8403 29.6127C30.928 29.5176 31.1789 29.7502 31.2805 29.6685C31.2675 29.7251 31.2542 29.7776 31.2409 29.8325C31.6292 30.2291 32.0158 30.6276 32.4019 31.0279C32.5257 30.9561 32.6496 30.8809 32.7727 30.8055C32.5676 30.7558 32.3633 30.7052 32.1608 30.6503C31.9399 30.2308 31.7089 29.8179 31.4692 29.412C31.7239 29.54 31.9809 29.6645 32.24 29.7859C32.3245 29.5768 31.4414 28.8892 32.2535 29.4448C32.2296 29.3446 32.2052 29.2445 32.1805 29.1457C32.283 29.2409 32.3857 29.3365 32.4879 29.4321C32.4695 29.3192 32.4494 29.2084 32.428 29.0959C31.9925 28.8486 31.5434 28.576 31.1283 28.3248C31.1281 28.1556 31.4552 28.4175 31.5496 28.4674C31.8002 28.5987 31.5732 28.2827 31.8009 28.408C31.8799 28.4501 32.0129 28.7278 32.2919 28.8884C32.3437 28.9228 33.3899 29.4865 33.2535 29.2177C33.0827 29.0919 32.8692 28.9429 32.6822 28.8076C32.6757 28.6024 33.6194 29.1865 33.8573 29.3873C33.7381 29.1825 33.8025 29.0603 33.5355 28.8496C33.5388 28.8426 33.5421 28.8356 33.5454 28.8286C33.5614 28.7946 33.5785 28.759 33.5953 28.7231C34.2419 29.2411 34.2369 28.9844 33.6569 28.5724C33.5969 28.6288 33.5362 28.6833 33.4753 28.7384C32.7992 28.1837 32.2365 28.0752 33.1707 28.1425C33.5985 28.3196 33.0265 28.2444 33.3495 28.3733C33.5888 28.3737 33.5205 28.1779 33.8555 28.2408C34.2743 28.3164 34.4914 28.6873 34.2682 28.0931C32.7609 28.1273 33.6171 27.552 33.442 27.0468C34.5731 27.567 35.1018 27.4244 34.9624 26.8395C34.6281 26.74 34.729 26.945 34.5898 26.9706C34.4515 26.9946 34.3058 26.8261 34.117 26.844C33.9287 26.8616 33.6392 26.9433 33.3793 26.9095C33.2487 26.7433 33.0088 26.1942 33.3882 26.6732C33.7806 26.6578 34.1413 26.7236 34.3067 26.5165C33.8462 26.2251 33.5386 26.0953 33.6132 25.8791C34.2486 26.3014 34.8374 26.2426 35.5304 26.5914C35.289 26.703 34.6367 26.3123 34.2653 26.2658C34.2287 26.2606 34.3354 26.4867 34.3067 26.5165C34.9911 26.6428 35.2521 26.6708 35.9414 27.1022C35.9317 26.9493 36.0572 26.9097 35.7076 26.7506C35.872 26.7892 36.037 26.8266 36.2019 26.8633C36.2151 26.82 36.216 26.7767 36.2365 26.7334C35.6742 26.5798 36.0526 26.5942 35.8387 26.4179C35.6233 26.2441 35.1574 26.1868 35.2292 25.9738C35.0762 25.9979 34.9436 26.0205 34.7987 26.0396C34.7099 25.8554 34.6157 25.675 34.5177 25.5001C34.1519 25.4785 33.5928 25.4766 33.1589 25.3065C33.3435 25.3162 33.1138 25.0383 33.1071 25.0172C33.0863 24.9298 33.3515 25.0621 33.3602 25.0591C33.5352 24.9857 33.4693 24.8589 33.9095 24.94C33.745 24.7895 33.8745 24.7527 33.8904 24.6501C33.8989 24.5937 33.5799 24.5216 33.648 24.5063C34.0996 24.4032 34.4704 24.6848 33.7751 24.1033C33.5421 24.1058 33.3044 24.1027 33.0702 24.097C32.9958 24.0363 32.9203 23.9769 32.8447 23.9188C32.8909 23.9001 32.9373 23.8812 32.9834 23.8616C33.4675 23.958 33.9526 24.0548 34.4367 24.1514C34.4702 24.1206 34.5028 24.0892 34.5361 24.0577C34.5723 24.1291 34.6076 24.2014 34.6422 24.2744C34.726 24.2978 34.81 24.3209 34.8938 24.3446C35.0456 24.2757 35.1979 24.2032 35.3493 24.1261C35.1806 24.0941 35.0106 24.062 34.8419 24.0302C35.1144 23.856 35.2606 23.8603 34.8203 23.5907C34.8466 23.4301 34.1457 23.2259 33.8521 23.1185C33.9507 23.0979 34.0504 23.0764 34.1489 23.0534C34.0081 23.0221 33.8679 22.9915 33.7269 22.9621C33.9278 22.9402 34.1288 22.9152 34.3286 22.8881C33.8797 22.8373 33.7405 22.8218 33.5722 22.9518C33.0174 22.8606 33.278 22.6453 33.4684 22.547C33.6135 22.4737 34.0788 22.573 34.1359 22.5658C34.3304 22.5367 34.1662 22.3952 34.1983 22.3675C34.2315 22.3377 34.255 22.3098 34.2731 22.2831C34.3283 22.2001 34.3335 22.1313 34.4095 22.0446C34.4298 22.0227 34.7243 21.9522 34.7334 21.9461C34.7829 21.9029 34.9223 21.7928 34.9257 21.7805C35.1066 21.1586 33.8714 21.8785 33.9609 21.354C33.7938 21.3872 33.6276 21.4182 33.4602 21.449C33.4464 21.4146 33.4327 21.3796 33.4183 21.3459C33.5538 21.2849 33.8165 21.3081 33.5987 21.2429C33.8068 21.2221 34.0151 21.2019 34.2223 21.1827C34.105 21.1538 33.9887 21.1288 33.8711 21.1034C34.5816 20.9374 34.6975 20.6416 35.5364 20.4998C35.8226 20.4503 36.1546 20.6239 36.4388 20.4518C36.4812 20.3415 36.1525 20.4698 36.1275 20.4335C35.9502 20.176 36.4247 20.0902 36.2719 19.9983C36.065 20.0262 35.8542 20.0556 35.6457 20.0865C35.6952 20.0309 35.7441 19.9744 35.7922 19.9162C35.6543 19.941 35.5163 19.966 35.3787 19.9918C35.3795 20.0319 35.3811 20.077 35.3804 20.1136C34.8443 20.1853 34.4981 19.8616 34.9847 19.8836C35.1835 19.8951 35.1412 20.0442 35.736 19.7947C35.6128 19.6938 35.4809 19.5833 35.3514 19.4877C35.4806 19.4399 35.61 19.3921 35.7389 19.3438C35.5936 19.1961 35.1301 19.5389 34.8491 19.6293C34.8292 19.5967 34.8097 19.5632 34.7893 19.531C34.9093 19.4708 35.0351 19.4082 35.1501 19.3468C34.9501 19.4183 34.4819 19.5721 34.6135 19.4064C34.6974 19.2957 35.2387 19.2052 35.1145 19.0975C34.8134 19.2364 34.4575 19.4283 34.3042 19.341C34.6156 19.1906 34.8969 19.0436 35.2234 18.8842C34.838 18.8372 35.274 18.5126 34.8163 18.4803C34.5218 18.4534 33.7059 18.7843 34.7646 17.9649C34.7287 17.8488 34.475 18.0681 34.3953 18.0841C34.0232 18.1689 34.4641 17.7052 34.4721 17.6546C34.5236 17.434 34.41 17.4139 34.3986 17.2938C34.3953 17.2912 34.3878 17.2808 34.3844 17.2783C34.3784 17.2358 34.3839 17.1798 34.41 17.095C34.2395 17.2744 34.0752 17.4412 33.9069 17.614C33.9903 17.5757 34.0569 17.5508 34.1106 17.5372C34.2928 17.5046 34.3269 17.5818 34.3705 17.7366C34.2912 17.7156 34.2112 17.6975 34.1324 17.6807C33.9851 17.8175 33.837 17.9533 33.6888 18.0874C34.6524 18.0397 33.542 18.638 33.1047 18.5296C33.3202 18.3145 33.5306 18.0949 33.7382 17.871L33.7472 17.8809C33.7918 17.8288 33.8362 17.7764 33.8806 17.7239C33.2915 17.9259 33.5606 17.5061 33.3865 17.2118C33.3652 17.1771 33.1301 17.2661 33.0804 17.2436C33.0803 17.2453 33.0802 17.2469 33.0801 17.2486C32.8468 17.5126 32.7882 17.6697 32.6052 17.9243C32.562 17.9414 32.5193 17.9588 32.477 17.9771C32.5703 17.7509 32.6963 17.5982 32.5683 17.5818C32.4513 17.7896 32.3317 17.996 32.2101 18.201C32.1209 18.1515 32.1929 17.8926 32.0477 17.9391C32.1064 17.8688 32.1662 17.7989 32.2271 17.7301C32.1299 17.4132 32.9611 16.2717 32.4446 16.7884C32.4866 16.6729 32.5284 16.556 32.5683 16.4397C32.6704 16.4563 32.7725 16.4771 32.8747 16.5003C32.9614 16.3508 33.048 16.2022 33.1347 16.0527C33.006 16.0393 32.877 16.032 32.7508 16.0282C32.8771 15.9607 33.0079 15.8974 33.1419 15.8383C33.0566 15.6977 32.9634 15.5586 32.863 15.4222C32.7347 16.0624 32.5279 16.0529 32.303 16.6419C32.3401 16.085 32.3703 15.3499 31.8802 15.664C31.7831 15.728 31.7118 16.1624 31.6517 15.5941C31.52 16.2815 31.2274 16.5492 31.1153 17.2067C31.1729 17.1866 31.2304 17.1797 31.2895 17.1544C31.2926 16.9171 31.4236 16.2951 31.5782 16.1405C31.7812 15.9447 31.8446 16.4278 32.0578 15.7567C32.1052 15.8073 32.1519 15.8443 32.1972 15.8906C32.1145 16.0465 32.0339 16.2044 31.9557 16.3622C32.1904 16.1544 32.2621 16.2805 32.1522 16.7125C31.9558 16.7393 31.7664 16.7779 31.5835 16.8271C31.5974 16.8626 31.6109 16.8985 31.6242 16.9332C31.3802 17.3289 31.3585 17.7664 31.1606 17.8103C31.2153 17.6118 31.27 17.4132 31.3254 17.2138C31.1079 17.7241 30.9443 17.6853 30.862 18.3158C30.8579 18.1158 30.8679 17.9925 30.7762 18.3224C30.7501 17.8268 30.7149 17.2083 30.8845 16.4986C30.7978 16.6039 30.7157 16.7114 30.6371 16.8203C30.6532 17.0219 30.6651 17.2226 30.6723 17.424C30.5733 17.3983 30.4706 17.3757 30.3674 17.357C30.3981 16.769 30.5906 17.1972 30.5752 16.6683C30.5711 16.5619 30.4873 16.7812 30.4764 16.7208C30.3452 16.0662 30.5942 16.5513 30.584 16.0568C30.3093 15.884 30.5818 15.0706 30.1328 15.7479C30.1255 15.578 30.1167 15.4047 30.1088 15.2359C30.0376 15.23 30.0011 15.3095 29.9709 15.4034C29.9352 15.5127 29.9079 15.6414 29.8412 15.6815C29.7678 15.7279 29.6321 15.0595 29.5654 15.5229C29.5601 15.6086 29.7348 16.4188 29.462 16.4041C29.2491 16.3975 29.2706 15.811 29.1136 15.6235C28.9362 15.4386 28.816 16.283 28.5193 15.4169C28.6202 15.517 28.7241 15.5612 28.8197 15.6439C28.8171 15.4631 28.8174 15.284 28.8204 15.1038C28.674 15.3621 28.414 15.1459 28.3999 15.5899C27.9712 15.0325 27.8718 15.7147 28.2099 16.3706C28.2402 16.2471 28.0581 15.9729 28.2236 16.1303C28.2896 16.2882 28.3546 16.4455 28.4183 16.6042C28.2655 16.6343 28.1626 16.6838 28.0408 16.1713C28.0108 16.1698 27.981 16.1685 27.9506 16.1677C28.0907 16.5174 28.2328 16.8678 28.3751 17.2166C28.3689 17.2653 28.3634 17.3135 28.3591 17.3619C28.3015 17.297 28.2417 17.2324 28.1799 17.169C27.9561 16.6166 28.0377 16.5515 27.6421 16.3767C27.7362 16.5599 27.8297 16.7425 27.9241 16.9255C27.6278 16.7882 27.3562 16.3642 27.1142 16.5481C26.9236 15.8128 27.6973 16.8339 26.975 15.594C27.0822 15.6409 27.1879 15.6918 27.2898 15.7447C27.2021 15.5558 27.1153 15.3662 27.0293 15.1765C26.6716 15.4816 27.0459 16.9002 26.311 16.3454C26.3615 16.448 26.4038 16.5389 26.4623 16.646C26.4569 16.6433 26.4516 16.6407 26.4464 16.6382L26.4582 16.628C25.9515 16.3971 26.7096 17.3254 26.0657 16.9851C25.9945 16.9553 25.1958 16.1054 24.976 16.4241C25.0971 16.5132 25.2936 16.672 25.4428 16.7888C25.3257 16.7848 25.2036 16.7828 25.082 16.7864C25.1834 16.882 25.2851 16.9772 25.3888 17.0716C25.5052 17.0068 25.6226 16.95 25.7398 16.8986C25.7117 17.0023 25.6869 17.1069 25.6668 17.2104C25.921 17.2532 25.9513 17.2227 26.1907 17.5028C26.1493 17.588 26.1123 17.6751 26.0782 17.762C26.1491 17.8229 26.2214 17.8838 26.2932 17.9436C26.5447 18.0672 26.7864 18.1957 27.0307 18.3388C26.7464 18.3429 26.6632 18.4554 26.1048 18.3535C26.0104 18.3381 25.7284 18.0867 25.9371 18.4096C25.7614 18.3338 25.6172 18.2755 25.454 18.2071C25.837 18.6768 25.6781 18.6458 25.2256 18.8359C25.6224 18.7474 25.3517 18.8495 25.5296 18.9387C25.6519 18.999 25.661 18.882 25.7929 18.9309C25.9215 18.9856 26.4378 19.232 26.5267 19.1525C26.0012 18.8913 26.091 18.7965 26.2449 18.758C26.4027 18.711 26.6182 18.7205 26.4484 18.4497C26.5552 18.5644 26.6673 18.6728 26.7838 18.7738C26.8835 18.7972 26.9731 18.8206 27.0772 18.8502C26.8146 18.8808 26.9742 18.8854 27.1158 19.0031C27.2577 19.122 27.372 19.2495 27.4041 19.3147C27.4139 19.336 27.1719 19.245 27.1368 19.2825C27.1111 19.3132 27.467 19.4686 27.0226 19.3994C26.7298 19.3724 25.9812 18.9925 25.9276 19.288C25.6344 19.2998 25.748 19.1641 25.7154 19.1545C25.3862 19.0535 25.0916 19.2368 25.3398 19.3717C25.3613 19.3808 25.6342 19.3422 25.7284 19.4325C25.9561 19.6389 25.6489 19.7047 25.2332 19.834C25.4051 19.8417 25.5885 19.8684 25.7461 19.904C26.0323 19.9708 26.2331 20.0562 26.1255 20.1737C26.2644 20.1729 26.4044 20.1708 26.5443 20.168C26.4693 20.1497 26.3955 20.1301 26.3208 20.1085C26.4061 20.0758 26.4681 20.0446 26.5698 20.0157C26.695 20.1701 27.3644 20.1307 27.6116 20.1516C28.4561 20.1787 26.7012 20.3669 26.3906 20.3404C26.5085 20.2911 26.6418 20.2454 26.7678 20.2032C26.6002 20.2223 26.4313 20.2423 26.2627 20.2624C26.3212 20.6736 25.1803 20.4625 24.9145 20.7825C25.7478 20.7177 25.844 20.8208 25.4235 21.2262C25.4366 21.2521 25.447 21.2788 25.4617 21.304C25.577 21.2671 25.7508 21.2037 25.828 21.1828C26.0478 21.3674 24.9356 21.9794 24.8454 22.074C24.4478 22.4775 25.1696 22.2358 25.1942 22.2633C25.3174 22.4116 25.0829 22.6519 25.3147 22.723C25.5621 22.7884 25.6716 22.5192 25.8833 22.4208C26.0492 22.3402 26.1601 22.418 26.3314 22.3271C26.2063 22.4167 26.08 22.5004 25.951 22.5861C25.9205 22.8615 25.9004 23.1265 26.0436 23.314C26.2103 23.1884 26.308 23.134 26.3659 23.1249L26.3501 23.1121C26.5995 23.0696 26.0793 23.9656 26.7786 22.9294C26.7406 22.8384 26.7299 22.7456 26.7498 22.6368C26.7697 22.5163 26.8259 22.3738 26.9278 22.1912C26.9781 22.2038 27.0279 22.215 27.078 22.2252C27.0798 22.2273 27.0869 22.2318 27.0886 22.2339C27.1448 22.2472 27.2009 22.2589 27.2569 22.2687C27.1771 22.4187 27.0958 22.562 27.0255 22.7221C27.2986 22.4822 27.3557 22.7024 27.472 22.6494C28.003 22.3875 28.1268 21.7673 27.9621 22.8146C27.7346 22.8219 27.5079 23.2637 27.3315 23.089C27.2004 23.4221 27.3565 23.4218 27.0789 23.7547C27.3624 23.7849 27.4541 23.4036 27.6782 23.1387C27.8679 22.9081 27.9992 22.945 28.1336 22.5926C28.0674 22.7893 28.0027 22.9795 27.9404 23.1773C28.0725 23.2275 28.2064 23.2731 28.3427 23.311C28.2239 23.5015 28.0976 23.689 27.9642 23.8713C27.9871 23.9652 28.0134 24.059 28.0411 24.1527C28.5837 23.6282 29.032 24.9323 29.166 23.2436C29.333 23.2115 29.3265 23.4227 29.3904 23.7504C29.4127 23.6236 29.4322 23.5183 29.4548 23.3769C29.5523 23.5202 29.6647 23.0448 29.7474 23.1741C29.8314 23.3024 29.8447 23.7575 29.8802 22.9936C29.9313 23.2146 29.9886 23.3979 30.0494 23.6021C30.067 23.5236 30.0841 23.4454 30.1007 23.3672L30.0777 23.3683C30.0898 23.2724 30.1018 23.1767 30.1137 23.0808C30.1806 23.1662 30.2475 23.2513 30.3144 23.3367C30.3132 22.9703 30.5582 23.1064 30.6381 22.8531C30.7698 23.2364 30.8777 24.4706 31.0852 24.2291C31.052 23.9236 31.0188 23.6189 30.9856 23.3134C31.0434 23.3726 31.1012 23.4317 31.1594 23.4909C31.1715 23.5905 31.1832 23.6901 31.1952 23.7898C31.1658 23.7612 31.1368 23.7328 31.1073 23.7033C31.1456 23.8702 31.1833 24.0365 31.2211 24.2035C31.2782 23.9459 31.3353 23.6884 31.3928 23.4308C31.2682 23.2508 31.1435 23.0707 31.0188 22.8907C31.1338 22.6539 31.2479 22.8696 31.343 22.6086C31.3664 22.6778 31.3855 22.7423 31.401 22.804C31.4135 22.8052 31.4512 22.799 31.4635 22.8012C31.5357 23.0606 31.4867 23.2644 31.4635 23.5444C31.467 23.6028 31.4666 23.6648 31.4666 23.7311C31.4718 23.7247 31.477 23.7183 31.4822 23.7119L31.4635 23.7128C31.4885 23.6797 31.5158 23.6486 31.5467 23.619C31.489 24.002 31.4661 24.2567 31.4635 24.3062L31.5352 24.303C31.5136 24.3143 31.4858 24.3187 31.4499 24.316C31.4769 24.4454 31.5036 24.5688 31.5307 24.7034C31.5447 24.6937 31.5586 24.7058 31.5725 24.72L31.4635 24.7249C31.4566 24.7474 31.4453 24.7742 31.4313 24.743C31.397 24.6714 31.3887 24.426 31.4563 24.1792C31.5188 23.9309 31.6472 23.6873 31.6999 23.5559C31.7454 23.4115 31.5627 23.6535 31.6136 23.4524C31.6628 23.1998 31.7877 23.1578 31.85 23.1078C31.906 23.0657 31.9085 22.9324 31.5443 22.6442C31.8326 22.3447 31.9391 22.5916 32.2209 22.8653C32.2859 22.7043 32.3403 22.5393 32.3844 22.3692C32.5754 22.5596 32.724 22.8043 32.7858 23.0287C32.3609 23.1878 32.2695 23.5807 32.0095 23.7311C31.8897 23.817 31.7578 23.8675 31.6131 23.9152C31.4746 23.9675 31.2898 24.0018 31.209 24.2112C31.0894 24.1297 31.0526 24.0742 31.011 24.0875C30.9215 24.0968 30.8337 24.115 30.7478 24.1447C30.8 24.163 30.8555 24.191 30.9238 24.2266C30.7439 24.2319 30.5686 24.2107 30.3984 24.1877C30.5 24.1085 30.6489 24.1067 30.8202 24.1131C30.9615 24.139 31.1209 24.1631 31.2949 24.1927C31.3686 24.1569 31.397 24.1313 31.3977 24.1131C31.3995 24.0792 31.1717 24.0787 31.1138 24.0735C31.3569 24.0425 31.5798 24.0079 31.8365 23.9849C31.629 24.0361 31.5726 24.0696 31.5777 24.1131C31.5849 24.1872 31.7128 24.2744 31.7257 24.3046C31.7923 24.4597 31.3016 24.312 31.2846 24.4031C31.2677 24.4879 31.5477 24.6436 31.0471 24.6435C31.3214 24.6839 31.606 24.7206 31.8567 24.7516C31.921 24.9297 31.6022 24.8402 31.5581 24.8486C30.8271 24.9582 31.3763 25.1914 31.3519 25.5078C31.4452 25.4986 31.5306 25.4856 31.6194 25.4709C32.1094 25.8725 31.9871 25.6749 32.2354 25.5123C32.1229 25.6935 32.5614 25.9613 32.647 26.1652C32.7333 26.3684 32.3897 26.5276 32.1682 26.5304C31.9573 26.2071 32.2369 26.0776 32.2284 25.8198C31.9517 25.757 31.7173 25.704 31.4159 25.6262C31.9334 25.9438 31.5302 25.8873 31.4428 25.8956C31.1838 25.9241 31.6544 26.1158 31.1212 25.9727C31.2958 26.0432 31.4426 26.1026 31.6059 26.1678C31.4275 26.3899 31.0115 26.4776 31.5423 26.9591C31.1355 26.7609 30.7462 26.5652 30.3323 26.3603C30.5833 26.6118 30.2351 26.5196 30.2618 26.6319C30.2876 26.7454 30.6194 26.9026 30.685 27.0668C30.6967 27.0974 30.4807 27.0124 30.5987 27.1422C30.7211 27.2678 31.6745 28.1171 30.7388 27.5346C30.6827 27.6108 30.5996 27.6624 30.532 27.7278C30.5318 27.6185 30.5314 27.5112 30.5275 27.4038C30.2631 27.3203 30.0016 27.2323 29.7418 27.1395C29.9333 27.2811 30.1279 27.4257 30.3164 27.5663C30.4394 27.8986 30.035 27.794 29.9883 28.0095C29.9799 28.0462 30.4051 28.2648 30.2159 28.3153C30.0905 28.3492 29.7184 28.1641 29.5109 28.1475C29.403 28.1386 29.3396 28.1752 29.3744 28.3156C29.3807 28.3356 29.8487 28.8257 29.432 28.5974C29.3381 28.545 29.2744 28.3781 29.1379 28.325C29.0018 28.2721 28.7805 28.3544 28.5219 28.148C28.6114 28.2234 28.711 28.2935 28.8048 28.3669C28.8239 28.4301 28.8423 28.4938 28.8596 28.557C28.7031 28.4232 28.5463 28.2892 28.3908 28.1557C28.6206 28.618 29.1186 29.2338 28.7145 29.2824C28.9906 29.4267 29.2708 29.5674 29.5525 29.7036C29.4159 29.5419 29.2776 29.38 29.1393 29.2201C29.2996 29.1697 29.46 29.1153 29.6204 29.0585C29.456 28.8832 29.291 28.7096 29.125 28.536C29.173 28.5278 29.2201 28.5191 29.2681 28.5104C29.3938 28.6294 29.5186 28.748 29.6436 28.8678C29.6613 28.7815 29.6777 28.6946 29.6935 28.6088C30.3772 29.3842 29.3448 28.8856 30.0037 29.4278C29.8801 29.3681 29.7564 29.3069 29.633 29.245C29.9328 29.5306 29.7947 29.5073 29.6603 29.5583C29.8309 29.6737 30.0023 29.784 30.1742 29.9008C29.8742 29.8048 29.7426 29.9881 29.5714 30.0068C29.4966 30.0147 29.3191 29.7662 29.2819 29.7541C29.091 29.6876 29.3512 30.1703 29.2961 30.1668C28.9709 30.1447 28.1921 29.5186 28.486 30.1414C28.7621 30.1015 28.625 30.1377 28.9364 30.3423C29.0334 30.4071 29.419 30.3632 29.0709 30.5543C29.0261 30.5836 28.0644 30.5352 27.8755 29.9956C27.911 30.1898 27.9776 30.3901 28.021 30.5888C26.9336 29.6997 27.8456 30.63 28.3695 31.1239C28.3405 31.1532 28.3157 31.1842 28.2837 31.2116C27.8587 30.5858 27.498 30.8309 27.6185 31.22C27.6578 31.3506 27.9219 31.4467 27.9001 31.6107C27.8223 31.6058 27.7292 31.5927 27.6455 31.5838C28.0105 31.9019 27.9876 32.154 28.2876 32.534C27.9292 32.2667 27.3065 31.5915 27.0496 31.1635C27.1035 31.3756 27.1548 31.5887 27.204 31.8041C27.3065 31.8708 27.4092 31.9358 27.5125 32.0015C27.0961 31.9375 27.1874 32.7231 26.5496 31.9275C26.5224 31.9555 26.4943 31.9829 26.4671 32.0107C26.5556 32.1584 26.6445 32.3063 26.7325 32.4543C26.5012 32.4336 26.2722 32.4074 26.0448 32.3788C26.1158 32.204 26.0082 31.9818 26.253 32.0554C26.0903 31.9272 25.9271 31.7978 25.7679 31.6666C25.8669 32.2395 26.0247 32.5557 25.629 32.6187C25.6104 32.6223 25.1415 32.3877 25.1121 32.3542C24.9727 32.2065 24.8771 31.9267 24.8089 31.8507C24.6163 31.6391 23.9953 31.1863 23.9478 31.09C23.3592 29.9246 24.1283 29.4265 24.2906 29.2265C25.267 28.0797 26.3268 27.3039 27.2792 26.3668C28.0005 25.6689 28.5745 24.8906 28.605 24.3939C28.6051 24.3822 28.4155 24.3451 28.4084 24.3391C28.3663 24.3049 28.6662 24.3383 28.6805 24.329C28.7095 24.312 28.4335 24.276 28.4355 24.263C28.4477 24.1981 28.4921 24.1542 28.5275 24.1131C28.5553 24.2836 28.543 24.575 28.8207 25.1912C29.0527 25.8105 30.0162 26.6567 30.6961 26.8059C30.8631 26.8534 30.7629 26.6033 31.0093 26.6953C31.0991 26.73 31.2997 26.9467 31.4635 27.045L31.7794 27.0309C31.7635 27.0677 31.7469 27.0933 31.73 27.0961C31.5021 27.1342 31.2996 27.0425 31.058 27.0693C30.926 27.0842 30.7248 27.0731 30.5773 27.0915C30.5231 27.0982 30.4766 27.2109 30.4256 27.2551C30.3627 27.2725 30.1649 27.2579 30.1007 27.2696C30.0845 27.2777 30.0685 27.2828 30.0526 27.2836C29.9189 27.29 29.9508 26.9734 29.931 26.9535C29.8448 26.8662 29.8247 27.2133 29.7386 27.2025C29.5773 27.1801 29.5801 26.9487 29.3766 26.9559C29.2318 26.9622 28.8731 27.1129 28.6672 27.1381C28.249 26.8133 27.6574 26.7962 27.1738 26.735C26.8878 26.6988 26.9709 26.3801 26.8654 26.3431C26.496 26.2111 26.0306 26.4559 25.6524 26.2657C25.1849 26.0267 24.929 25.5575 24.5859 25.2098L24.6647 25.2741C24.6408 25.2515 24.6164 25.2291 24.5914 25.2073C24.5252 25.1489 24.351 25.3911 24.2758 25.3375C23.9999 25.1424 23.6363 24.8555 23.4589 24.5788C23.2589 24.2672 23.5294 23.9071 23.2699 23.6785C23.1942 23.6097 22.8575 23.7885 22.7227 23.6581C22.5069 23.4457 22.666 23.0134 22.6263 22.8301C22.5699 22.5722 22.2998 22.9338 22.2154 22.578C22.2121 22.5629 22.4518 22.4174 22.4151 22.3529C22.311 22.1633 22.107 22.2483 22.0396 21.9355C22.0301 21.9007 22.192 21.4458 22.1891 21.4111C22.1432 21.182 22.1779 20.7341 22.114 20.6156C21.8826 20.1873 21.4894 20.5408 22.3725 20.1372C22.2599 20.0615 22.1478 19.9855 22.0376 19.904C21.9275 19.8208 21.8194 19.734 21.7154 19.6381C21.9094 19.7615 22.2192 19.2947 22.2072 19.2618C22.0855 18.9661 21.7152 19.0986 21.8251 18.7229C22.556 19.327 21.9929 18.269 22.0532 18.0149C22.2359 16.8891 22.9492 15.9803 23.6421 15.1728C23.8727 14.8978 24.09 14.4427 24.3701 14.2118C24.3822 14.2016 24.3946 14.1999 24.4073 14.2036L24.3346 14.2667C24.3898 14.2813 24.4514 14.3966 24.498 14.36C24.5548 14.3143 24.352 14.2056 24.4236 14.1586C24.8864 13.8633 25.4294 13.9767 25.5893 13.2933C25.6471 13.3445 25.6757 13.3948 25.7497 13.4451C25.8807 12.8348 26.8661 13.07 27.131 13.0766C27.5684 13.065 27.5849 12.7463 27.8973 12.7323C28.3162 12.7134 28.9494 13.237 28.5561 12.2922C28.8211 12.2212 29.0803 12.1859 29.3475 12.2612C29.3772 12.2698 29.3727 12.5223 29.3845 12.5267C29.4581 12.5585 29.4688 12.3324 29.5178 12.3198C29.6486 12.2864 29.4461 12.5647 29.6287 12.482C29.7141 12.4433 29.7644 12.279 29.9709 12.2422C29.9937 12.238 30.0186 12.2355 30.0456 12.2353C31.5944 12.2025 33.5793 12.7183 35.0977 13.7914C35.2014 13.8632 35.268 13.6141 35.393 13.7187C35.8129 14.0598 36.2319 14.9071 36.5347 15.2448C36.5568 15.2611 36.6055 15.3293 36.627 15.3464C36.6494 15.3723 36.6718 15.3957 36.6942 15.4162C37.0265 15.7274 37.2391 15.4293 37.5396 15.5791C37.5973 15.6087 37.4057 15.6905 37.4336 15.734C37.6263 16.0284 37.575 16.5407 37.6616 16.7915C37.7197 16.9594 37.9919 16.7935 38.0715 16.8936C38.1893 17.0449 37.9816 17.3562 38.0115 17.4449C38.1556 17.8645 38.5077 18.0563 38.512 18.4858C38.5738 18.4487 38.6321 18.4182 38.6934 18.3833C38.8377 18.8505 38.9436 19.312 39.0199 19.7626C39.0788 19.7292 39.1382 19.696 39.1978 19.6617C39.2657 20.205 38.5594 20.2501 40.0035 19.9685C40.0612 20.001 40.1273 20.0348 40.1803 20.0669C39.4307 20.1711 38.9347 20.572 38.7786 20.9632C38.767 20.9895 39.5184 21.1177 38.648 21.1682C38.8643 21.1984 39.0131 21.2162 39.203 21.2444C38.9458 21.3457 38.6906 21.4409 38.4324 21.5318C38.4739 21.5709 38.5139 21.6109 38.555 21.6501C38.7259 21.6486 38.9028 21.6357 39.0709 21.642C39.0996 21.8035 38.9729 22.0987 38.9314 22.2831C38.9216 22.3278 38.9169 22.3664 38.9209 22.3961C38.9735 22.7719 39.4126 23.2065 38.8894 23.469C38.9272 23.6195 39.2747 23.503 39.2112 23.7208C39.0399 23.729 38.8757 23.7355 38.6992 23.7424C39.4336 24.0004 38.9707 23.9945 38.7813 24.2121C38.6519 24.3595 38.8184 24.4938 38.7562 24.6441C38.7402 24.682 38.5219 24.6382 38.5244 24.6659C38.5324 24.757 38.7837 25.0709 38.7776 25.1378C38.7357 25.7328 38.5657 26.2221 38.312 26.7247C38.285 26.7789 38.5181 26.775 38.4892 26.8314C38.4428 26.9224 38.1427 26.7568 38.1084 26.8055C38.0141 26.9407 38.3496 27.0613 38.2875 27.2811C38.0808 28.0071 37.4751 28.6621 37.0864 29.2923C37.0749 29.3125 37.2567 29.4147 37.2457 29.438C37.1707 29.5893 36.843 29.5887 36.7683 29.716C36.6437 29.926 36.7891 30.2411 36.651 30.445C36.555 30.5868 36.4457 30.7099 36.3308 30.8271L36.351 30.7986C36.1475 31.0096 35.9287 31.1984 35.7375 31.4356C35.4936 31.7367 35.3032 32.0114 35.0286 32.3243C33.8429 33.6736 32.9271 35.3586 31.3467 36.124C31.3067 36.1428 31.209 35.9856 31.2034 35.9999C31.1525 36.1388 31.2925 36.3443 30.9438 35.9555C30.8788 36.1326 31.0731 36.4757 30.9003 36.5685C30.8089 36.6175 30.5126 36.0834 30.5583 36.4369C30.5987 36.7562 30.9313 36.9275 30.3565 36.9209C30.341 36.9205 30.0781 36.6541 30.0562 36.7872C30.0323 36.9202 30.2763 37.0726 30.1304 37.2715C29.8508 37.6509 29.2996 37.8001 28.8512 38.0646C27.4621 39.3655 25.2087 38.5524 23.6888 37.407C23.6188 37.3241 23.5429 37.2475 23.4576 37.182C23.4288 37.1599 23.05 37.0404 22.937 37.0522C22.7177 37.0754 22.5345 37.2817 22.3691 37.2016C22.2415 37.1396 22.3963 36.8486 22.2453 36.7765C22.2275 36.7684 21.9718 36.9629 21.9239 36.8484ZM28.5108 17.5145C28.6042 17.816 29.0432 18.8829 28.8269 18.5978C28.8005 18.574 28.5041 17.8341 28.3861 17.7517C28.4105 17.6454 28.4638 17.591 28.5103 17.5134C28.5105 17.5138 28.5106 17.5141 28.5108 17.5145ZM26.7665 31.2341C26.8228 31.3806 26.8798 31.5271 26.936 31.6736C26.7651 31.6943 26.5943 31.7148 26.4228 31.7365C26.5372 31.569 26.6521 31.4016 26.7665 31.2341ZM33.6304 22.4364C33.6304 22.4365 33.6304 22.4366 33.6304 22.4367C33.5712 22.3846 33.5116 22.3334 33.4515 22.2831C33.3624 22.2071 33.2724 22.1351 33.1817 22.0648C33.2916 22.0748 33.4021 22.0854 33.512 22.0964C33.621 22.1565 33.7292 22.2179 33.8369 22.2831C33.9019 22.3218 33.9667 22.3612 34.0313 22.4014C33.8977 22.4136 33.7641 22.4253 33.6304 22.4364ZM34.7079 23.5839C34.5665 23.6568 34.3516 23.6041 34.1328 23.6207C34.1332 23.6208 34.1336 23.6209 34.134 23.6209C34.077 23.6254 34.0203 23.675 34.0086 23.6956C34.1458 23.7087 34.2818 23.7188 34.4182 23.7302C34.713 24.0079 33.4831 24.1386 33.0937 23.604C33.2642 23.6385 33.4338 23.673 33.6041 23.7083C33.5943 23.4738 34.0001 23.2357 34.7079 23.5839ZM27.6402 18.8009C28.0309 19.2354 28.1546 19.2627 27.7534 19.1887C27.6153 19.1038 27.4801 19.0136 27.3482 18.9181C27.5057 18.9723 27.6593 19.0327 27.8108 19.0998C27.8109 19.0997 27.8109 19.0997 27.8109 19.0996C27.664 19.0086 27.5176 18.916 27.3722 18.8225C27.4623 18.8092 27.5518 18.8023 27.6402 18.8009ZM29.9862 30.7761C29.175 29.9769 29.6339 30.4536 29.5936 30.1429C29.5792 30.0352 29.3999 29.9299 29.4056 29.8796C29.432 29.6086 29.9663 30.1506 30.2029 30.4724C30.1334 30.5746 30.0582 30.6773 29.9865 30.7759C29.9864 30.776 29.9863 30.776 29.9862 30.7761ZM26.7638 33.4955C26.7637 33.4954 26.7636 33.4953 26.7635 33.4952C26.9634 33.3029 27.0803 33.3197 27.2034 33.0657C27.2559 33.1241 27.3076 33.1834 27.3603 33.2421C27.3256 33.2426 27.2915 33.2419 27.2568 33.2424C27.2007 33.322 27.1437 33.4024 27.0875 33.482C27.3408 33.2864 27.2221 33.4311 27.1997 33.564C27.4346 33.3165 27.6697 33.0688 27.9045 32.8213C27.895 32.9605 27.8854 33.1003 27.8759 33.2395C27.8136 33.2985 27.7513 33.3577 27.689 33.4167C27.7941 33.369 27.8999 33.3201 28.005 33.2724C27.9364 33.349 27.8681 33.4248 27.7995 33.5015C27.8556 33.4882 27.9117 33.4749 27.9679 33.4615L25.6979 33.1723C25.6955 33.1411 25.6929 33.1099 25.6903 33.0787C25.8357 33.2801 25.8161 33.4206 25.9198 33.2783C26.0019 33.4835 26.083 33.6886 26.1634 33.8945L27.3362 34.0439C27.3032 34.0638 27.2702 34.0836 27.2372 34.1034C27.0789 33.9013 26.9213 33.6984 26.7638 33.4955ZM30.9272 29.3583C30.7841 29.5812 30.7047 29.402 30.3348 28.9742C30.531 29.1038 30.7286 29.2317 30.9272 29.3583ZM32.9841 17.9976C32.6813 18.243 32.3935 18.4984 32.1245 18.758C31.9234 18.8715 32.2428 18.2416 32.4732 18.069C32.7633 17.8733 32.6273 18.2354 32.9841 17.9976ZM30.0969 17.1262C30.2623 17.3088 30.0864 17.76 30.0542 18.0258C30.0359 17.7941 30.008 17.6987 29.9709 17.6522C29.9406 17.6129 29.9049 17.6088 29.8612 17.587C29.8966 17.575 29.9338 17.493 29.9709 17.4014C30.0274 17.265 30.0803 17.1073 30.097 17.125C30.097 17.1254 30.097 17.1258 30.0969 17.1262ZM33.8899 20.4146C33.9171 20.4749 34.0371 20.5169 33.9227 20.6034C33.5606 20.6649 33.861 20.4821 33.3486 20.6819C33.3309 20.6464 33.3133 20.6117 33.2941 20.5779C33.5188 20.5467 33.6742 20.4738 33.8888 20.415C33.8891 20.4149 33.8895 20.4147 33.8899 20.4146ZM32.0958 27.1721C32.5349 27.2935 32.3965 27.1644 32.211 26.8913C32.5243 27.0575 32.9391 27.515 32.9858 27.6828C32.6884 27.5139 32.3916 27.3435 32.0958 27.1721ZM30.0528 31.0996C29.766 30.7493 29.936 30.4933 30.1374 30.4735C30.1734 30.5327 30.2099 30.5928 30.2463 30.653C30.1844 30.802 30.1196 30.9511 30.0528 31.0996ZM29.8156 17.5577C29.8318 17.5704 29.8469 17.5798 29.8612 17.587C29.8456 17.5922 29.8305 17.585 29.8156 17.5577ZM25.8423 22.1816C25.4499 22.3636 25.4788 22.6526 25.4378 22.3038C25.4374 22.304 25.4371 22.3042 25.4368 22.3045C25.4172 22.075 25.4228 22.0249 25.3671 21.8501C25.888 21.6674 26.1828 21.7994 26.1004 21.4068C26.0986 21.4019 25.8115 21.5559 25.8222 21.4747C25.8255 21.449 26.0404 21.2793 26.0801 21.1688C26.0916 21.1306 26.0941 20.9065 26.2027 21.1721C26.5512 21.0184 26.912 20.882 27.2521 20.7375C27.3717 20.7449 26.7246 21.1216 26.7923 21.2049C26.8962 21.325 27.5395 20.9217 26.7556 21.5269C26.4798 21.5691 26.3387 21.3287 26.866 21.0467C26.829 20.9553 26.3614 21.0998 26.1908 21.3078C26.6917 21.5928 25.6195 21.8111 26.2273 22.0055C26.3401 21.9264 26.4684 21.8501 26.5684 21.7681C26.2786 22.1815 25.9851 22.1224 25.8423 22.1816ZM26.301 20.7138C26.6025 20.7201 26.9031 20.6994 27.1956 20.6516C26.7488 20.8079 26.3344 20.9208 26.0388 20.8583C26.1257 20.8079 26.2133 20.7593 26.301 20.7138ZM32.7397 24.5284C32.9952 24.5659 33.2263 24.6335 33.4666 24.6947C33.2587 24.7328 32.8978 25.5426 32.7682 25.0741C32.7504 25.0191 33.2576 24.6792 32.7397 24.5284ZM31.8414 28.2052C32.024 28.2505 32.2087 28.2925 32.3935 28.3326C32.4119 28.4931 32.4292 28.6572 32.4427 28.8223C32.2442 28.6145 32.0436 28.4089 31.8414 28.2052ZM32.2648 16.985C32.2877 17.0069 32.0453 17.2832 32.1742 17.2837C31.9964 17.4487 31.8487 17.5924 31.6992 17.7607C31.7444 17.5978 31.7863 17.4345 31.8258 17.2697C31.7679 17.3625 31.7113 17.4552 31.656 17.5492C31.7537 17.3251 31.8499 17.1066 31.9533 16.8804C31.8937 17.4208 32.1497 16.8851 32.2648 16.985ZM35.7701 20.3992C35.2543 20.5263 34.8994 20.3612 34.8606 20.6018C34.5098 20.6247 34.3187 20.5977 34.2617 20.4862C34.3875 20.4375 34.5119 20.3879 34.6369 20.3369C34.2889 20.4164 34.1524 20.4148 33.8899 20.4146C33.8903 20.4144 33.8907 20.4143 33.891 20.4141C33.8224 20.2529 33.9387 20.2342 34.4895 20.0257C34.2266 20.3109 34.7427 20.1709 35.089 20.2465C35.3269 20.2997 35.2575 20.4561 35.7701 20.3992ZM32.5699 23.3477C32.8662 23.4296 33.0694 23.3875 33.186 23.4102C33.2953 23.424 33.3447 23.5996 33.1335 23.9241C33.0171 23.8956 32.901 23.8709 32.7836 23.8516C32.7454 23.7029 32.6895 23.5305 32.5699 23.3477ZM34.08 21.4085C34.8971 21.318 35.5156 21.0895 34.1854 21.2278C33.9295 21.3832 34.6756 21.2427 34.08 21.4085ZM30.1947 15.8417C30.491 15.892 30.3583 16.8163 30.2443 17.274C30.2374 17.1048 30.2292 16.9353 30.2201 16.7672C30.1729 16.842 30.1266 16.9175 30.0824 16.9922C30.1147 16.6088 30.1525 16.2246 30.1947 15.8417ZM34.2981 26.0265C33.8293 25.62 33.9138 26.1049 33.6277 25.836C33.397 25.628 33.9988 25.7104 34.3246 25.895C34.3197 25.9362 34.31 25.9806 34.2983 26.0262C34.2982 26.0263 34.2982 26.0264 34.2981 26.0265ZM34.5196 24.8412C33.9056 24.7093 34.0956 24.7103 34.1617 24.8913C34.1816 24.9446 33.8509 25.212 34.3911 25.226C34.4305 25.1011 34.4781 24.971 34.5196 24.8412ZM27.5515 17.5022C27.371 17.2935 27.26 16.6347 27.3832 16.7368C27.383 16.7364 27.3827 16.7361 27.3825 16.7357C27.6814 17.0282 27.4835 17.2296 27.895 17.629C27.4079 17.366 28.0974 18.3529 27.1195 17.1188C27.2117 16.957 27.3462 17.2651 27.5515 17.5022ZM26.1811 32.5814C26.1809 32.5814 26.1808 32.5815 26.1807 32.5816C26.2045 32.5815 26.5691 32.82 26.6295 32.9465C26.389 32.9638 26.2777 32.7212 26.3508 33.1907C26.266 33.0792 26.1849 32.9704 26.0992 32.8584C26.1184 32.7474 26.0614 32.5845 26.1811 32.5814ZM32.0611 25.2721C32.0096 25.1835 32.329 25.1084 32.3284 25.0126C33.3861 25.5442 32.2526 25.6587 32.0611 25.2721ZM27.754 32.8237C27.7539 32.8232 27.7538 32.8228 27.7538 32.8223C27.7541 32.8229 27.7544 32.8234 27.7547 32.8239C27.7544 32.8238 27.7542 32.8238 27.754 32.8237ZM28.201 22.392C28.1798 22.4631 28.1598 22.5241 28.14 22.5768C28.138 22.5817 28.136 22.5866 28.1341 22.5915C28.1561 22.5259 28.1785 22.4595 28.201 22.392ZM27.2075 17.9107C26.9301 17.7562 26.7686 17.2783 26.8501 17.0913C26.8667 17.0462 26.8953 17.0206 26.9342 17.0252C27.0395 17.1638 27.1401 17.285 27.2555 17.4491C27.1877 17.3974 27.144 17.3829 27.1183 17.3928C27.1166 17.3939 27.1125 17.3984 27.1108 17.3994C26.9901 17.4451 27.2493 17.9422 27.2075 17.9107ZM34.1181 19.0681C33.9851 18.7932 35.5132 18.4673 34.4467 19.0228C34.4252 19.0312 34.1229 19.0725 34.1181 19.0681ZM29.0115 16.7706C28.9984 16.31 28.8193 16.2185 29.0895 16.2511C29.1234 16.3651 29.1559 16.4796 29.1876 16.594C29.1263 16.6515 29.0674 16.7108 29.0115 16.7706ZM34.1664 16.0842C33.5835 15.9534 33.0022 16.1556 32.5818 17.3619C32.626 17.3418 32.6704 17.3237 32.7157 17.3049C33.0498 16.792 32.9663 17.1341 33.0805 17.2421C33.2419 17.0586 33.3508 17.07 33.4916 16.9179C33.767 16.626 33.8358 16.3246 34.1664 16.0842ZM30.2048 32.4223C30.1427 32.3379 30.0801 32.2533 30.0185 32.1698C29.9928 32.0372 29.9663 31.9058 29.9388 31.7741C30.0612 31.9333 30.1833 32.0928 30.3054 32.2523C30.2724 32.309 30.2393 32.3657 30.2055 32.4225C30.2052 32.4224 30.205 32.4224 30.2048 32.4223ZM24.9583 20.5614C26.1039 20.4331 25.873 20.3789 25.2775 20.1285C25.1646 20.2621 25.0574 20.4063 24.9583 20.5614ZM36.2589 23.2128C35.9323 23.1956 35.6069 23.1776 35.2804 23.1592C35.6076 23.3273 35.9816 23.3434 36.4193 23.3068C36.3661 23.2749 36.3124 23.2439 36.2589 23.2128ZM35.999 25.4164C36.0823 25.3732 35.8193 25.3329 35.8262 25.3279C36.0025 25.2118 36.1271 25.2165 35.9823 24.9764C35.9208 24.9364 35.8555 24.8963 35.7916 24.8566C35.1052 24.7809 35.453 24.9323 35.0174 25.0016C35.2524 25.0327 35.4882 25.0618 35.7251 25.0888C35.6503 25.178 35.5752 25.265 35.4983 25.3506C35.5644 25.3828 35.6297 25.4151 35.6955 25.4477C35.7955 25.4383 35.907 25.4298 35.999 25.4164ZM29.4259 32.6748C29.3339 32.7135 29.2392 32.7523 29.1473 32.7897C29.2482 32.925 29.3498 33.0611 29.4505 33.1965C29.4429 33.0228 29.436 32.8477 29.4259 32.6748ZM26.3314 22.3271C26.3805 22.2919 26.4294 22.256 26.4783 22.2186C26.4238 22.2696 26.3758 22.3036 26.3314 22.3271ZM25.463 31.9447C25.3096 31.9031 25.221 32.0505 25.1079 32.0911C25.3382 32.4468 25.5325 32.1873 25.7609 32.3445C25.7343 32.2713 25.5279 31.962 25.463 31.9447ZM30.5942 15.9027C30.641 15.6949 30.6902 15.4886 30.7418 15.2816C30.813 15.3118 30.8848 15.3444 30.9549 15.3768C30.9801 15.2058 31.0056 15.0334 31.0312 14.8624C30.6571 15.0422 30.7974 14.5594 30.6488 14.0529C30.6387 14.6696 30.6201 15.2859 30.5942 15.9027ZM27.5307 35.3863C27.6503 35.1678 27.591 34.9444 27.204 34.579C27.2069 34.7198 27.2077 34.8618 27.2097 35.0027C27.3166 35.1306 27.4238 35.2584 27.5307 35.3863ZM29.9145 24.1319C30.0083 24.0398 30.0531 24.1553 30.1007 24.2547C30.1118 24.2527 30.1459 24.2552 30.1568 24.2522C30.2121 24.3531 30.264 24.4361 30.3353 24.2289C30.2682 24.1519 30.201 24.0744 30.1339 23.997C30.1275 23.9987 30.1072 23.9972 30.1007 23.9984C30.0659 23.9526 30.0318 23.9065 29.9985 23.8604C29.9718 23.9508 29.9432 24.0418 29.9145 24.1319ZM24.2935 16.3105C24.0114 16.2875 24.8477 17.0851 23.9492 16.9489C24.1282 17.1478 24.3181 17.3064 24.509 17.4777C24.2519 17.3869 23.9867 17.3054 23.7275 17.2255C23.7274 17.2257 23.7273 17.2259 23.7272 17.2261C23.6691 17.5638 24.0702 17.5068 24.325 17.6378C24.431 17.689 24.1642 17.8053 24.4285 17.8457C24.8745 17.9181 24.8237 17.4606 25.2991 17.7259C25.0801 17.7506 25.1051 18.045 25.4641 18.1307C25.8475 18.2432 25.3562 17.7478 25.7145 17.7943C24.8622 17.5302 25.3359 17.2693 25.9038 17.627C25.6292 17.1396 25.3274 17.184 25.1966 17.4376C24.858 17.0203 24.9555 17.3798 24.5675 17.2081C24.4382 16.8976 25.0404 16.45 24.2935 16.3105ZM35.7917 17.5989C35.6741 17.4668 35.7473 17.0593 35.3267 17.2151C35.0873 17.3115 35.08 17.6312 34.6606 17.7227C34.7794 17.8207 34.9256 17.7652 35.1938 17.5465C35.249 17.5536 35.3038 17.5625 35.3585 17.5718C35.3123 17.6237 35.2668 17.6751 35.2199 17.7262C35.349 17.6646 35.478 17.605 35.6081 17.5453C35.6072 17.5955 35.6059 17.6459 35.6028 17.696C35.666 17.6627 35.7232 17.6374 35.7917 17.5989ZM30.8652 26.4267C30.8785 26.3916 30.8912 26.357 30.9027 26.3218C30.8256 26.2884 30.7451 26.2541 30.6658 26.2199C30.6032 26.1927 30.5407 26.1653 30.4782 26.1379C30.7041 26.2315 31.147 26.2443 30.9405 26.0681C30.8355 25.9829 30.3829 25.8624 30.3647 25.7022C30.3467 25.8041 30.3645 25.9166 30.3551 26.0259C30.2353 25.9575 30.1139 25.889 29.9936 25.8215C29.9934 25.8215 29.9932 25.8215 29.993 25.8214C29.9511 25.8369 29.9081 25.8507 29.8662 25.8651C30.2007 26.05 30.5334 26.2369 30.8652 26.4267ZM36.913 23.1344C36.6539 22.9633 36.5155 22.9114 36.0758 22.9529C36.0756 22.9531 36.0754 22.9532 36.0752 22.9534C36.2652 23.0176 36.4546 23.0845 36.6436 23.154C36.7332 23.1479 36.8232 23.1416 36.913 23.1344ZM26.5254 24.3049C27.6596 23.0498 26.4991 23.535 26.2921 24.0666C26.2846 24.0947 26.5865 24.1304 26.5254 24.3049ZM30.1527 15.3302C30.239 15.3187 30.3252 15.31 30.4129 15.3015C30.4046 15.0968 30.394 14.8928 30.3824 14.6881C30.2996 14.9006 30.2239 15.1155 30.1527 15.3302ZM28.7489 35.474C29.078 35.8004 29.3607 35.8041 29.163 35.3371C29.0828 35.3229 29.003 35.3081 28.923 35.2934C28.9784 35.1851 29.0291 35.0725 29.086 34.9658C28.7223 34.4459 28.8344 34.8185 28.5825 34.7815C28.5422 34.7755 27.9435 34.2329 28.2304 34.7559C28.289 34.8637 28.4964 34.8209 28.587 35.1897C28.6516 35.1789 28.6912 35.1439 28.7463 35.1243C28.8363 35.2458 28.9263 35.3674 29.0166 35.4886C28.9273 35.4843 28.8374 35.4794 28.7489 35.474ZM35.1382 16.7801C35.1176 16.7475 35.0949 16.7235 35.0699 16.7072C35.0611 16.7002 35.0412 16.6723 35.0322 16.6657C34.8932 16.5835 34.7024 16.7334 34.4079 16.9743C34.4804 16.9987 34.5519 17.0242 34.624 17.0517C34.6295 17.0558 34.6415 17.0727 34.6469 17.0769C34.6828 17.0924 34.7188 17.1082 34.7547 17.1244C34.8824 17.01 35.0103 16.8958 35.1382 16.7801ZM30.3193 34.5083C30.454 34.4968 30.1922 34.2383 30.1853 34.1558C30.1588 33.8461 30.4118 33.9784 30.4413 33.7455C30.4765 33.8074 30.5096 33.8652 30.5437 33.9254C30.5439 33.9253 30.544 33.9252 30.5441 33.9251C31.3634 33.6556 30.5099 33.2872 30.2273 33.6851C30.1343 33.5858 30.0417 33.486 29.9496 33.3874C29.9327 33.7032 29.918 34.0023 30.3193 34.5083ZM24.186 21.5573C24.11 21.5971 23.5579 21.6466 23.8687 21.782C24.6676 21.6816 24.2079 21.5518 24.4811 21.4027C24.5685 21.4305 24.6545 21.4574 24.7419 21.4796C24.8629 21.1357 24.679 21.1413 24.1532 21.406C24.1181 21.4253 24.2624 21.52 24.186 21.5573ZM25.0571 23.7229C25.9057 22.9356 25.2762 23.0242 25.0039 23.2546C25.0327 23.3103 25.21 23.2143 25.187 23.318C25.1653 23.4225 24.9793 23.6216 25.0571 23.7229ZM28.468 14.4305C28.458 14.4271 28.2371 13.9768 28.3331 14.3465C28.6652 15.1955 28.7924 14.5835 28.7023 14.28C28.6129 14.3113 28.5782 14.4558 28.4677 14.4293C28.4678 14.4297 28.4679 14.4301 28.468 14.4305ZM25.0976 36.075C25.0934 36.08 25.0898 36.0958 25.0881 36.1168C25.8924 36.723 27.085 37.1533 27.8201 36.4648C27.9031 36.4839 28.0754 36.4855 28.0148 36.3517C27.9223 36.1675 27.8118 35.9774 27.71 35.7905C27.7159 35.9427 27.5927 35.9962 27.61 36.139C27.0081 36.7027 26.0317 36.3503 25.3731 35.854C25.3044 35.8761 25.2189 35.9372 25.0979 36.0753C25.0978 36.0752 25.0977 36.0751 25.0976 36.075Z" fill="#D6E8D0"/>
</svg>
